<?xml version="1.0" standalone="no"?>
<!DOCTYPE svg PUBLIC "-//W3C//DTD SVG 20010904//EN"
 "http://www.w3.org/TR/2001/REC-SVG-20010904/DTD/svg10.dtd">
<svg version="1.0" xmlns="http://www.w3.org/2000/svg"
 width="401.000000pt" height="221.000000pt" viewBox="0 0 401.000000 221.000000"
 preserveAspectRatio="xMidYMid meet">

<g transform="translate(0.000000,221.000000) scale(0.100000,-0.100000)"
fill="#000000" stroke="none">
<path d="M752 2157 l-52 -53 0 -1052 0 -1052 1603 0 1603 0 52 53 52 53 0
1052 0 1052 -1603 0 -1603 0 -52 -53z m3246 -1007 l2 -1046 -45 -44 -45 -44 0
1044 0 1044 43 46 42 45 -45 -42 -46 -43 -1594 0 -1594 0 44 45 44 45 1596 -2
1595 -3 3 -1045z m-98 -95 l0 -1045 -1595 0 -1595 0 0 1045 0 1045 1595 0
1595 0 0 -1045z"/>
<path d="M1450 1807 c0 -112 3 -272 7 -355 l6 -152 892 0 892 0 6 152 c4 83 7
243 7 355 l0 203 -905 0 -905 0 0 -203z m1800 -52 l0 -245 -895 0 -895 0 0
245 0 245 895 0 895 0 0 -245z m-147 -345 c20 -49 37 -92 37 -95 0 -3 -376 -5
-835 -5 l-835 0 0 95 0 95 798 0 799 0 36 -90z m111 82 c3 -5 -10 -45 -29 -88
l-34 -79 -27 60 c-37 84 -43 102 -38 107 9 9 123 8 128 0z m26 -92 l0 -90 -41
0 c-29 0 -40 4 -36 13 22 56 70 167 73 167 2 0 4 -40 4 -90z"/>
<path d="M2100 1805 c0 -8 -6 -15 -14 -15 -7 0 -19 -7 -26 -15 -9 -10 -9 -15
-1 -15 6 0 11 5 11 10 0 6 7 10 15 10 10 0 15 -10 15 -26 0 -21 -4 -25 -20
-21 -11 3 -20 1 -20 -4 0 -5 11 -9 25 -9 23 0 25 3 25 50 0 28 -2 50 -5 50 -3
0 -5 -7 -5 -15z"/>
<path d="M1980 1765 c0 -44 0 -45 33 -44 30 2 30 2 5 6 -16 2 -28 10 -28 18 0
8 12 16 28 18 l27 4 -27 2 c-17 0 -28 7 -28 15 0 8 12 17 28 19 25 4 25 4 -5
6 -33 1 -33 0 -33 -44z"/>
<path d="M2630 1785 c0 -8 8 -11 20 -8 11 3 20 7 20 8 0 1 -9 5 -20 8 -12 3
-20 0 -20 -8z"/>
<path d="M2133 1755 c0 -22 2 -30 4 -17 2 12 2 30 0 40 -3 9 -5 -1 -4 -23z"/>
<path d="M2168 1783 c6 -2 18 -2 25 0 6 3 1 5 -13 5 -14 0 -19 -2 -12 -5z"/>
<path d="M2233 1784 c23 -7 22 -20 -3 -27 -30 -8 -25 -37 6 -37 23 0 25 3 22
32 -2 24 -8 33 -23 35 -16 1 -16 1 -2 -3z m17 -44 c0 -5 -7 -10 -15 -10 -8 0
-15 5 -15 10 0 6 7 10 15 10 8 0 15 -4 15 -10z"/>
<path d="M2290 1780 c0 -5 7 -7 15 -4 8 4 15 8 15 10 0 2 -7 4 -15 4 -8 0 -15
-4 -15 -10z"/>
<path d="M2382 1753 c1 -37 1 -37 5 -6 3 19 11 34 21 36 12 3 10 5 -5 6 -20 1
-23 -3 -21 -36z"/>
<path d="M2434 1776 c-11 -28 0 -51 26 -53 22 -1 22 -1 3 4 -29 6 -30 23 -2
23 14 0 19 5 17 17 -4 23 -36 29 -44 9z m36 -6 c0 -5 -7 -10 -15 -10 -8 0 -15
5 -15 10 0 6 7 10 15 10 8 0 15 -4 15 -10z"/>
<path d="M2504 1776 c-9 -23 0 -51 16 -52 9 0 10 1 3 3 -20 7 -16 51 5 56 16
4 16 5 -1 6 -10 0 -20 -5 -23 -13z"/>
<path d="M2564 1776 c-11 -28 1 -51 26 -53 22 -1 22 -1 3 4 -13 2 -23 8 -23
13 0 5 10 11 23 13 l22 4 -22 2 c-13 0 -23 6 -23 12 0 6 9 9 20 6 11 -3 18 -1
14 4 -8 14 -34 11 -40 -5z"/>
<path d="M2703 1784 c23 -7 22 -20 -4 -27 -27 -7 -20 -31 10 -35 20 -3 22 0
19 30 -2 24 -8 33 -23 35 -16 1 -16 1 -2 -3z m17 -44 c0 -5 -7 -10 -15 -10 -8
0 -15 5 -15 10 0 6 7 10 15 10 8 0 15 -4 15 -10z"/>
<path d="M2280 1749 c0 -5 5 -7 10 -4 6 3 10 8 10 11 0 2 -4 4 -10 4 -5 0 -10
-5 -10 -11z"/>
<path d="M2637 1754 c-10 -11 5 -34 22 -34 14 1 14 2 -2 11 -9 6 -15 14 -12
20 7 10 2 12 -8 3z"/>
<path d="M2170 1730 c0 -6 7 -10 15 -10 8 0 15 2 15 4 0 2 -7 6 -15 10 -8 3
-15 1 -15 -4z"/>
<path d="M1522 1448 c-16 -16 3 -38 32 -38 17 1 16 3 -9 14 -25 12 -27 15 -12
21 10 4 24 2 35 -6 15 -13 16 -12 3 4 -16 20 -32 22 -49 5z"/>
<path d="M1663 1415 c0 -27 2 -38 4 -22 2 15 2 37 0 50 -2 12 -4 0 -4 -28z"/>
<path d="M2368 1450 c-5 -17 3 -80 11 -80 7 0 6 79 -2 86 -3 3 -7 0 -9 -6z"/>
<path d="M2713 1415 c0 -27 2 -38 4 -22 2 15 2 37 0 50 -2 12 -4 0 -4 -28z"/>
<path d="M1595 1419 c-9 -29 19 -59 37 -40 11 10 10 11 -3 6 -10 -4 -20 -2
-24 4 -3 7 3 11 15 11 15 0 20 5 18 17 -5 26 -35 28 -43 2z m35 1 c0 -5 -7
-10 -16 -10 -8 0 -12 5 -9 10 3 6 10 10 16 10 5 0 9 -4 9 -10z"/>
<path d="M1697 1434 c-4 -4 -7 -18 -7 -31 0 -26 26 -41 42 -25 8 8 5 9 -11 5
-12 -3 -21 -1 -21 6 0 6 9 11 21 11 14 0 19 5 17 17 -3 19 -29 29 -41 17z m33
-14 c0 -5 -7 -10 -15 -10 -8 0 -15 5 -15 10 0 6 7 10 15 10 8 0 15 -4 15 -10z"/>
<path d="M1764 1426 c-9 -23 0 -51 16 -52 9 0 10 1 3 3 -20 7 -16 51 5 56 16
4 16 5 -1 6 -10 0 -20 -5 -23 -13z"/>
<path d="M1824 1426 c-9 -23 0 -51 16 -52 9 0 10 1 3 3 -20 7 -16 51 5 56 16
4 16 5 -1 6 -10 0 -20 -5 -23 -13z"/>
<path d="M1883 1405 c0 -22 2 -30 4 -17 2 12 2 30 0 40 -3 9 -5 -1 -4 -23z"/>
<path d="M1904 1415 c-4 -15 -2 -31 4 -37 13 -13 42 -3 42 14 0 10 -2 10 -9
-1 -10 -16 -31 -6 -31 14 0 21 21 30 32 14 8 -12 9 -11 5 1 -7 27 -36 23 -43
-5z"/>
<path d="M1972 1403 c1 -37 1 -37 5 -5 3 18 10 32 18 32 8 0 16 -14 18 -32 l5
-33 -2 35 c-1 28 -5 36 -23 38 -21 3 -23 -1 -21 -35z"/>
<path d="M2047 1434 c-16 -16 -6 -34 19 -34 19 0 25 5 22 17 -3 19 -29 29 -41
17z m28 -14 c3 -5 -1 -10 -9 -10 -9 0 -16 5 -16 10 0 6 4 10 9 10 6 0 13 -4
16 -10z"/>
<path d="M2141 1403 c2 -35 2 -35 6 -8 3 16 10 33 16 37 8 5 6 8 -5 8 -14 0
-18 -8 -17 -37z"/>
<path d="M2187 1434 c-16 -16 -6 -34 19 -34 19 0 25 5 22 17 -3 19 -29 29 -41
17z m28 -14 c3 -5 -1 -10 -9 -10 -9 0 -16 5 -16 10 0 6 4 10 9 10 6 0 13 -4
16 -10z"/>
<path d="M2252 1428 c-7 -7 -12 -19 -11 -27 0 -10 4 -6 10 8 6 15 14 21 25 17
8 -3 12 -2 9 4 -8 13 -18 13 -33 -2z"/>
<path d="M2323 1434 c24 -8 22 -28 -3 -21 -21 5 -24 -1 -14 -27 7 -18 30 -21
39 -6 3 5 0 7 -8 4 -8 -3 -18 -1 -22 5 -3 7 3 11 15 11 28 0 23 34 -5 37 -16
1 -16 1 -2 -3z"/>
<path d="M2406 1431 c-3 -5 3 -7 14 -4 11 3 20 1 20 -5 0 -5 -9 -12 -21 -15
-22 -6 -22 -29 -1 -33 7 -1 8 0 2 3 -15 7 -12 23 4 23 8 0 17 -8 20 -17 2 -10
4 -2 3 17 -2 34 -27 54 -41 31z"/>
<path d="M2506 1431 c-4 -5 3 -7 14 -4 11 3 20 1 20 -5 0 -5 -9 -12 -21 -15
-22 -6 -22 -29 -1 -33 7 -1 8 0 2 3 -15 7 -12 23 4 23 8 0 17 -8 19 -17 3 -10
5 -1 6 20 1 30 -2 37 -18 37 -11 0 -22 -4 -25 -9z"/>
<path d="M2623 1434 c24 -8 22 -28 -3 -21 -12 3 -20 0 -20 -8 0 -8 9 -11 25
-7 31 5 30 36 0 39 -16 1 -16 1 -2 -3z"/>
<path d="M2674 1426 c-8 -22 -1 -49 14 -52 7 -1 8 0 2 3 -14 7 -13 50 3 56 9
4 9 6 -1 6 -7 1 -15 -5 -18 -13z"/>
<path d="M2743 1405 c0 -22 2 -30 4 -17 2 12 2 30 0 40 -3 9 -5 -1 -4 -23z"/>
<path d="M2806 1431 c-4 -5 3 -7 14 -4 23 6 26 13 6 13 -8 0 -17 -4 -20 -9z"/>
<path d="M2861 1403 c2 -35 2 -35 6 -8 3 16 10 33 16 37 8 5 6 8 -5 8 -14 0
-18 -8 -17 -37z"/>
<path d="M2800 1390 c0 -15 6 -19 23 -18 33 3 34 38 1 38 -17 0 -24 -5 -24
-20z m35 0 c-3 -5 -10 -10 -16 -10 -5 0 -9 5 -9 10 0 6 7 10 16 10 8 0 12 -4
9 -10z"/>
<path d="M1519 1387 c17 -22 35 -21 52 1 13 16 12 16 -4 3 -16 -13 -22 -13
-40 -1 -20 12 -21 12 -8 -3z"/>
<path d="M2047 1378 c6 -11 31 -10 37 1 3 5 -5 8 -18 7 -13 0 -22 -4 -19 -8z"/>
<path d="M2187 1378 c2 -5 10 -8 18 -8 8 0 16 3 18 8 3 4 -5 7 -18 7 -13 0
-21 -3 -18 -7z"/>
<path d="M2265 1380 c-16 -7 -17 -9 -3 -9 9 -1 20 4 23 9 7 11 7 11 -20 0z"/>
<path d="M2625 1380 c-16 -7 -17 -9 -3 -9 9 -1 20 4 23 9 7 11 7 11 -20 0z"/>
<path d="M1550 1005 l0 -105 784 0 c517 0 787 -3 791 -10 4 -6 12 -5 21 4 10
11 14 41 14 115 l0 101 -805 0 -805 0 0 -105z m1600 0 l0 -95 -795 0 -795 0 0
95 0 95 795 0 795 0 0 -95z"/>
<path d="M1590 1039 c-9 -16 -9 -28 -1 -45 10 -23 44 -33 55 -15 3 4 -5 6 -18
4 -26 -5 -42 21 -30 51 7 18 39 22 47 6 3 -6 4 -5 3 2 -5 23 -44 21 -56 -3z"/>
<path d="M2301 1019 c-1 -41 1 -46 21 -45 12 0 23 8 25 16 4 12 3 13 -5 1 -11
-16 -32 -7 -32 14 0 21 21 30 32 14 8 -12 9 -11 5 1 -2 8 -10 15 -18 15 -8 0
-17 7 -21 15 -4 8 -7 -6 -7 -31z"/>
<path d="M2550 1051 c0 -5 -9 -11 -21 -14 -16 -4 -20 -12 -17 -33 2 -15 9 -29
16 -30 7 -1 8 0 2 3 -16 7 -12 53 4 53 9 0 16 -13 19 -32 3 -25 4 -22 5 15 1
26 0 47 -3 47 -3 0 -5 -4 -5 -9z"/>
<path d="M2683 1015 c0 -27 2 -38 4 -22 2 15 2 37 0 50 -2 12 -4 0 -4 -28z"/>
<path d="M3038 1050 c-5 -17 3 -80 11 -80 7 0 6 79 -2 86 -3 3 -7 0 -9 -6z"/>
<path d="M1676 1031 c-3 -5 3 -7 14 -4 11 3 20 0 20 -6 0 -6 -9 -11 -20 -11
-13 0 -20 -7 -20 -20 0 -15 6 -19 25 -18 22 2 26 7 23 33 -3 30 -30 47 -42 26z
m29 -41 c-3 -5 -10 -10 -16 -10 -5 0 -9 5 -9 10 0 6 7 10 16 10 8 0 12 -4 9
-10z"/>
<path d="M1745 1030 c-3 -5 0 -7 9 -4 11 4 16 -3 19 -28 l4 -33 1 38 c2 26 -2
37 -12 37 -8 0 -18 -4 -21 -10z"/>
<path d="M1836 1028 c3 -5 10 -6 15 -2 5 3 18 0 27 -8 15 -12 16 -11 4 4 -13
16 -56 22 -46 6z"/>
<path d="M1903 1005 c0 -22 2 -30 4 -17 2 12 2 30 0 40 -3 9 -5 -1 -4 -23z"/>
<path d="M1936 1031 c-3 -5 3 -7 14 -4 11 3 20 0 20 -6 0 -6 -9 -11 -20 -11
-13 0 -20 -7 -20 -20 0 -15 6 -19 25 -18 22 2 26 7 23 33 -3 30 -30 47 -42 26z
m29 -41 c-3 -5 -10 -10 -16 -10 -5 0 -9 5 -9 10 0 6 7 10 16 10 8 0 12 -4 9
-10z"/>
<path d="M2001 1003 c2 -35 2 -35 6 -8 3 16 10 33 16 37 8 5 6 8 -5 8 -14 0
-18 -8 -17 -37z"/>
<path d="M2072 1003 c1 -37 1 -37 5 -5 3 18 10 32 18 32 8 0 16 -14 18 -32 l5
-33 -2 35 c-1 28 -5 36 -23 38 -21 3 -23 -1 -21 -35z"/>
<path d="M2144 1026 c-9 -23 0 -51 17 -54 19 -4 32 23 24 49 -7 22 -33 25 -41
5z m31 -21 c0 -10 -6 -20 -12 -22 -8 -3 -13 5 -13 22 0 17 5 25 13 23 6 -3 12
-13 12 -23z"/>
<path d="M2201 1001 c1 -35 2 -35 8 -7 9 42 29 44 34 4 l5 -33 -2 35 c-1 29
-5 35 -23 36 -20 1 -23 -3 -22 -35z"/>
<path d="M2265 1030 c3 -5 8 -10 11 -10 2 0 4 5 4 10 0 6 -5 10 -11 10 -5 0
-7 -4 -4 -10z"/>
<path d="M2371 1003 c2 -35 2 -35 6 -8 3 16 10 33 16 37 8 5 6 8 -5 8 -14 0
-18 -8 -17 -37z"/>
<path d="M2417 1034 c-4 -4 -7 -18 -7 -31 0 -26 26 -41 42 -25 8 8 5 9 -11 5
-12 -3 -21 -1 -21 6 0 6 9 11 21 11 14 0 19 5 17 17 -3 19 -29 29 -41 17z m33
-14 c0 -5 -7 -10 -15 -10 -8 0 -15 5 -15 10 0 6 7 10 15 10 8 0 15 -4 15 -10z"/>
<path d="M2587 1033 c-16 -15 -5 -33 19 -33 20 0 25 4 20 16 -3 9 -6 18 -6 20
0 7 -26 5 -33 -3z m28 -13 c3 -5 -1 -10 -9 -10 -9 0 -16 5 -16 10 0 6 4 10 9
10 6 0 13 -4 16 -10z"/>
<path d="M2706 1031 c-3 -5 3 -7 14 -4 11 3 20 1 20 -5 0 -5 -9 -12 -21 -15
-22 -6 -22 -29 -1 -33 7 -1 8 0 2 3 -15 7 -12 23 4 23 8 0 17 -8 20 -17 2 -10
4 -2 3 17 -2 34 -27 54 -41 31z"/>
<path d="M2801 1003 c1 -28 3 -31 6 -13 3 14 10 31 15 38 8 9 6 12 -6 12 -12
0 -16 -9 -15 -37z"/>
<path d="M2863 1034 c24 -8 22 -28 -3 -21 -15 4 -20 0 -20 -14 0 -23 27 -36
42 -21 8 8 5 9 -11 5 -12 -3 -21 -1 -21 6 0 6 9 11 21 11 27 0 22 34 -6 37
-16 1 -16 1 -2 -3z"/>
<path d="M2917 1033 c-4 -3 -7 -17 -7 -30 0 -26 26 -41 42 -25 8 8 5 9 -11 5
-17 -4 -21 -1 -21 20 0 16 7 27 18 30 14 4 14 5 1 6 -9 0 -19 -2 -22 -6z"/>
<path d="M2977 1034 c-4 -4 -7 -18 -7 -31 0 -26 26 -41 42 -25 8 8 5 9 -11 5
-12 -3 -21 -1 -21 6 0 6 9 11 21 11 14 0 19 5 17 17 -3 19 -29 29 -41 17z m28
-14 c3 -5 -1 -10 -9 -10 -9 0 -16 5 -16 10 0 6 4 10 9 10 6 0 13 -4 16 -10z"/>
<path d="M3076 1031 c-3 -5 3 -7 14 -4 11 3 20 0 20 -6 0 -6 -9 -11 -20 -11
-13 0 -20 -7 -20 -20 0 -15 6 -19 25 -18 22 2 26 7 23 33 -3 30 -30 47 -42 26z
m29 -41 c-3 -5 -10 -10 -16 -10 -5 0 -9 5 -9 10 0 6 7 10 16 10 8 0 12 -4 9
-10z"/>
<path d="M1850 976 c7 -7 13 -7 20 0 6 6 3 10 -10 10 -13 0 -16 -4 -10 -10z"/>
<path d="M2587 978 c2 -5 10 -8 18 -8 8 0 16 3 18 8 3 4 -5 7 -18 7 -13 0 -21
-3 -18 -7z"/>
<path d="M1571 713 c-1 -118 3 -184 10 -189 7 -4 9 22 7 85 l-3 91 778 -2
c427 -2 777 0 777 5 0 4 -350 7 -778 7 l-777 0 2 78 c1 43 -2 85 -7 92 -6 9
-9 -57 -9 -167z"/>
<path d="M1656 847 c3 -10 9 -15 12 -12 3 3 0 11 -7 18 -10 9 -11 8 -5 -6z"/>
<path d="M2703 837 c-13 -13 -23 -27 -23 -32 0 -5 7 0 15 11 13 16 16 17 25 4
8 -12 10 -9 10 13 0 32 1 32 -27 4z"/>
<path d="M2245 840 c-3 -5 -1 -10 4 -10 6 0 11 5 11 10 0 6 -2 10 -4 10 -3 0
-8 -4 -11 -10z"/>
<path d="M1705 821 c-8 -25 4 -51 24 -52 13 0 12 -2 -4 -10 l-20 -9 20 3 c16
2 21 11 23 45 3 36 0 42 -17 42 -11 0 -22 -8 -26 -19z m35 -16 c0 -26 -14 -33
-25 -15 -9 14 1 40 15 40 5 0 10 -11 10 -25z"/>
<path d="M1771 803 c1 -28 3 -31 6 -13 3 14 10 31 15 38 8 9 6 12 -6 12 -12 0
-16 -9 -15 -37z"/>
<path d="M1814 816 c-3 -14 -3 -30 1 -35 8 -13 32 -14 39 -2 4 5 -3 7 -14 4
-11 -3 -20 0 -20 6 0 6 9 11 21 11 14 0 19 5 17 17 -5 29 -36 28 -44 -1z m36
4 c0 -5 -7 -10 -16 -10 -8 0 -12 5 -9 10 3 6 10 10 16 10 5 0 9 -4 9 -10z"/>
<path d="M1884 828 c-4 -7 -3 -8 5 -4 6 4 19 2 27 -5 12 -10 13 -9 8 5 -7 19
-30 21 -40 4z"/>
<path d="M1963 833 c23 -6 22 -19 -4 -26 -22 -6 -22 -29 -1 -33 7 -1 8 0 2 3
-5 2 -10 9 -10 14 0 14 28 11 33 -3 3 -7 6 2 6 20 1 27 -2 32 -21 31 -17 -1
-19 -2 -5 -6z"/>
<path d="M2011 803 c2 -35 2 -35 6 -8 3 16 10 33 16 37 8 5 6 8 -5 8 -14 0
-18 -8 -17 -37z"/>
<path d="M2085 820 c-4 -12 -1 -27 5 -35 14 -16 40 -20 40 -6 0 5 -8 8 -17 7
-12 -1 -18 6 -18 19 0 13 6 20 18 19 9 -1 17 2 17 7 0 18 -39 8 -45 -11z"/>
<path d="M2154 811 c0 -21 7 -36 16 -38 10 -3 11 -2 3 4 -6 4 -13 22 -16 38
-4 27 -5 27 -3 -4z"/>
<path d="M2193 805 c0 -22 2 -30 4 -17 2 12 2 30 0 40 -3 9 -5 -1 -4 -23z"/>
<path d="M2223 805 c0 -22 2 -30 4 -17 2 12 2 30 0 40 -3 9 -5 -1 -4 -23z"/>
<path d="M2286 831 c-4 -5 3 -7 14 -4 23 6 26 13 6 13 -8 0 -17 -4 -20 -9z"/>
<path d="M2345 830 c-3 -5 -2 -10 4 -10 5 0 13 5 16 10 3 6 2 10 -4 10 -5 0
-13 -4 -16 -10z"/>
<path d="M2423 805 c0 -22 2 -30 4 -17 2 12 2 30 0 40 -3 9 -5 -1 -4 -23z"/>
<path d="M2447 833 c-4 -3 -7 -11 -7 -17 0 -6 5 -5 12 2 19 19 26 14 31 -20 4
-32 4 -32 5 5 2 30 -2 37 -16 37 -10 0 -22 -3 -25 -7z"/>
<path d="M2514 825 c-3 -8 -4 -20 -1 -27 3 -7 6 -3 6 10 2 38 31 27 31 -12 0
-28 -4 -36 -22 -39 -20 -5 -20 -5 2 -4 22 2 25 7 28 45 3 37 1 42 -18 42 -11
0 -23 -7 -26 -15z"/>
<path d="M2581 803 c2 -35 2 -35 6 -8 3 16 10 33 16 37 8 5 6 8 -5 8 -14 0
-18 -8 -17 -37z"/>
<path d="M2627 833 c-4 -3 -7 -17 -7 -30 0 -27 26 -41 43 -23 9 10 7 11 -10 5
-14 -4 -23 -2 -23 4 0 6 9 11 21 11 15 0 19 4 15 16 -3 9 -6 18 -6 20 0 7 -26
5 -33 -3z m28 -13 c3 -5 -1 -10 -9 -10 -9 0 -16 5 -16 10 0 6 4 10 9 10 6 0
13 -4 16 -10z"/>
<path d="M2753 805 c0 -22 2 -30 4 -17 2 12 2 30 0 40 -3 9 -5 -1 -4 -23z"/>
<path d="M2787 833 c-16 -15 -5 -33 19 -33 20 0 25 4 20 16 -3 9 -6 18 -6 20
0 7 -26 5 -33 -3z m28 -13 c3 -5 -1 -10 -9 -10 -9 0 -16 5 -16 10 0 6 4 10 9
10 6 0 13 -4 16 -10z"/>
<path d="M2846 824 c-9 -24 -7 -31 5 -11 15 26 27 21 32 -15 4 -32 4 -32 5 5
2 30 -1 37 -17 37 -10 0 -22 -7 -25 -16z"/>
<path d="M2952 828 c-16 -16 -15 -33 3 -48 13 -10 18 -11 28 -1 9 10 8 11 -4
6 -10 -4 -20 -2 -24 4 -3 7 3 11 15 11 15 0 20 5 18 17 -4 21 -21 26 -36 11z
m28 -8 c0 -5 -7 -10 -16 -10 -8 0 -12 5 -9 10 3 6 10 10 16 10 5 0 9 -4 9 -10z"/>
<path d="M3015 830 c-9 -15 4 -30 23 -29 15 1 15 2 0 6 -10 2 -18 8 -18 13 0
5 8 11 18 13 15 4 15 5 0 6 -9 0 -20 -3 -23 -9z"/>
<path d="M1655 813 c-21 -6 -35 -21 -35 -38 1 -5 5 -2 11 8 5 9 19 17 29 17
11 0 20 5 20 10 0 6 -1 9 -2 9 -2 -1 -12 -4 -23 -6z"/>
<path d="M2303 813 c-33 -6 -31 -43 1 -41 14 1 22 6 20 10 -3 4 -11 5 -19 1
-8 -3 -15 0 -15 6 0 6 6 11 14 11 8 0 18 5 21 10 3 6 5 9 3 9 -2 -1 -13 -4
-25 -6z"/>
<path d="M1880 792 c0 -7 8 -16 17 -19 15 -6 15 -7 -3 -15 -18 -8 -18 -8 0 -5
11 1 20 10 22 20 1 9 -2 14 -8 11 -6 -4 -14 0 -19 7 -7 11 -9 11 -9 1z"/>
<path d="M2700 776 c7 -7 13 -7 20 0 6 6 3 10 -10 10 -13 0 -16 -4 -10 -10z"/>
<path d="M2787 778 c2 -5 10 -8 18 -8 8 0 16 3 18 8 3 4 -5 7 -18 7 -13 0 -21
-3 -18 -7z"/>
<path d="M3018 778 c5 -5 16 -8 23 -6 8 3 3 7 -10 11 -17 4 -21 3 -13 -5z"/>
<path d="M3125 761 c-3 -5 -2 -12 3 -15 5 -3 9 1 9 9 0 17 -3 19 -12 6z"/>
<path d="M1663 653 c9 -2 23 -2 30 0 6 3 -1 5 -18 5 -16 0 -22 -2 -12 -5z"/>
<path d="M1760 650 c0 -5 -6 -10 -14 -10 -18 0 -29 -31 -20 -54 3 -9 15 -16
25 -16 16 0 19 8 19 45 0 25 -2 45 -5 45 -3 0 -5 -4 -5 -10z m0 -45 c0 -26
-14 -33 -25 -15 -9 14 1 40 15 40 5 0 10 -11 10 -25z"/>
<path d="M2470 651 c0 -5 -9 -11 -21 -14 -30 -8 -23 -62 9 -63 20 -1 22 3 22
42 0 24 -2 44 -5 44 -3 0 -5 -4 -5 -9z m-5 -46 c0 -10 -6 -20 -12 -22 -8 -3
-13 5 -13 22 0 17 5 25 13 23 6 -3 12 -13 12 -23z"/>
<path d="M1815 640 c-3 -5 -1 -10 4 -10 6 0 11 5 11 10 0 6 -2 10 -4 10 -3 0
-8 -4 -11 -10z"/>
<path d="M1793 605 c0 -22 2 -30 4 -17 2 12 2 30 0 40 -3 9 -5 -1 -4 -23z"/>
<path d="M1856 631 c-4 -5 3 -7 14 -4 23 6 26 13 6 13 -8 0 -17 -4 -20 -9z"/>
<path d="M1915 630 c4 -6 11 -8 16 -5 14 9 11 15 -7 15 -8 0 -12 -5 -9 -10z"/>
<path d="M1992 603 l1 -38 4 33 c4 28 7 32 25 26 14 -4 18 -2 14 5 -4 6 -16
11 -27 11 -16 0 -19 -6 -17 -37z"/>
<path d="M2090 609 c0 -24 -4 -30 -15 -25 -8 3 -15 1 -15 -4 0 -6 9 -10 20
-10 16 0 20 7 20 35 0 19 -2 35 -5 35 -3 0 -5 -14 -5 -31z"/>
<path d="M2121 601 c1 -35 2 -35 8 -7 9 42 29 44 34 4 l5 -33 -2 35 c-1 29 -5
35 -23 36 -20 1 -23 -3 -22 -35z"/>
<path d="M2185 630 c3 -5 8 -10 11 -10 2 0 4 5 4 10 0 6 -5 10 -11 10 -5 0 -7
-4 -4 -10z"/>
<path d="M2226 625 c-10 -28 -7 -32 19 -27 17 3 25 10 23 21 -4 22 -34 26 -42
6z m34 -5 c0 -5 -7 -10 -16 -10 -8 0 -12 5 -9 10 3 6 10 10 16 10 5 0 9 -4 9
-10z"/>
<path d="M2291 603 c2 -35 2 -35 6 -8 3 16 10 33 16 37 8 5 6 8 -5 8 -14 0
-18 -8 -17 -37z"/>
<path d="M2334 626 c-9 -23 0 -51 17 -54 19 -4 32 23 24 49 -7 22 -33 25 -41
5z m31 -21 c0 -10 -6 -20 -12 -22 -8 -3 -13 5 -13 22 0 17 5 25 13 23 6 -3 12
-13 12 -23z"/>
<path d="M2502 628 c-16 -16 -15 -33 3 -48 13 -10 18 -11 28 -1 9 10 8 11 -4
6 -10 -4 -20 -2 -24 4 -3 7 3 11 17 12 23 1 23 1 -2 8 -17 5 -21 9 -12 15 6 4
17 4 24 0 7 -4 8 -3 4 4 -9 15 -19 15 -34 0z"/>
<path d="M2599 623 c-13 -16 -12 -17 4 -4 14 11 20 11 35 0 15 -13 16 -12 3 4
-7 9 -17 17 -21 17 -4 0 -14 -8 -21 -17z"/>
<path d="M2683 634 c24 -8 22 -28 -3 -21 -21 5 -24 -1 -14 -27 7 -18 30 -21
39 -6 3 5 0 7 -8 4 -8 -3 -18 -1 -22 5 -3 7 3 11 15 11 28 0 23 34 -5 37 -16
1 -16 1 -2 -3z"/>
<path d="M2731 603 c2 -35 2 -35 6 -8 3 16 10 33 16 37 8 5 6 8 -5 8 -14 0
-18 -8 -17 -37z"/>
<path d="M2770 636 c0 -2 9 -6 20 -9 11 -3 18 -1 14 4 -5 9 -34 13 -34 5z"/>
<path d="M2834 626 c-9 -24 0 -51 18 -54 19 -4 35 38 23 57 -9 16 -35 13 -41
-3z m31 -21 c0 -10 -6 -20 -12 -22 -8 -3 -13 5 -13 22 0 17 5 25 13 23 6 -3
12 -13 12 -23z"/>
<path d="M2896 624 c-9 -24 -7 -31 5 -11 15 26 27 21 32 -15 4 -32 4 -32 5 5
2 30 -1 37 -17 37 -10 0 -22 -7 -25 -16z"/>
<path d="M2966 631 c-3 -5 3 -7 14 -4 11 3 20 1 20 -5 0 -5 -9 -12 -21 -15
-22 -6 -22 -29 -1 -33 7 -1 8 0 2 3 -15 7 -12 23 4 23 8 0 17 -8 20 -17 2 -10
4 -2 3 17 -2 34 -27 54 -41 31z"/>
<path d="M3034 628 c-4 -6 0 -16 9 -23 22 -16 21 -22 0 -28 -16 -4 -16 -5 -1
-6 24 -2 34 20 15 34 -21 15 -22 29 -1 21 8 -3 12 -2 9 4 -8 13 -22 13 -31 -2z"/>
<path d="M1663 613 c9 -2 23 -2 30 0 6 3 -1 5 -18 5 -16 0 -22 -2 -12 -5z"/>
<path d="M1850 590 c0 -15 6 -19 24 -18 14 1 22 6 20 10 -3 4 -11 5 -19 1 -8
-3 -15 0 -15 5 0 6 8 13 18 15 13 4 11 5 -5 6 -17 1 -23 -5 -23 -19z"/>
<path d="M2790 603 c15 -7 12 -21 -5 -26 -11 -4 -10 -4 2 -3 21 2 25 28 5 32
-7 1 -8 0 -2 -3z"/>
<path d="M2245 580 c-16 -7 -17 -9 -3 -9 9 -1 20 4 23 9 7 11 7 11 -20 0z"/>
<path d="M2596 579 c6 -11 31 -12 37 -1 3 4 -6 8 -19 8 -13 1 -21 -2 -18 -7z"/>
<path d="M1653 573 c9 -2 25 -2 35 0 9 3 1 5 -18 5 -19 0 -27 -2 -17 -5z"/>
<path d="M1658 503 l92 -4 0 -99 0 -100 605 0 605 0 0 100 0 99 93 4 c50 1
-263 3 -698 3 -434 0 -748 -2 -697 -3z m1292 -98 l0 -95 -595 0 -595 0 0 95 0
95 595 0 595 0 0 -95z"/>
<path d="M1870 415 c0 -44 0 -45 33 -44 30 2 30 2 5 6 -36 6 -36 30 0 36 l27
4 -27 2 c-17 0 -28 7 -28 15 0 8 12 17 28 19 25 4 25 4 -5 6 -33 1 -33 0 -33
-44z"/>
<path d="M1990 446 c0 -8 -8 -13 -17 -12 -14 1 -18 -7 -18 -29 0 -24 4 -30 23
-31 20 -1 22 3 22 42 0 24 -2 44 -5 44 -3 0 -5 -6 -5 -14z m-5 -41 c0 -10 -6
-20 -12 -22 -8 -3 -13 5 -13 22 0 17 5 25 13 23 6 -3 12 -13 12 -23z"/>
<path d="M2023 405 c0 -22 2 -30 4 -17 2 12 2 30 0 40 -3 9 -5 -1 -4 -23z"/>
<path d="M2087 433 c-3 -5 5 -8 18 -8 13 0 21 3 18 8 -2 4 -10 7 -18 7 -8 0
-16 -3 -18 -7z"/>
<path d="M2141 403 c1 -28 3 -31 6 -13 3 14 10 31 15 38 8 9 6 12 -6 12 -12 0
-16 -9 -15 -37z"/>
<path d="M2220 393 c0 -27 4 -43 8 -37 4 6 14 14 22 17 12 4 11 6 -2 6 -12 1
-18 9 -18 25 0 15 7 26 18 29 13 4 11 5 -5 6 -21 1 -23 -4 -23 -46z"/>
<path d="M2281 403 c2 -35 2 -35 6 -8 3 16 10 33 16 37 8 5 6 8 -5 8 -14 0
-18 -8 -17 -37z"/>
<path d="M2325 430 c-11 -17 4 -60 20 -60 7 0 17 4 20 10 3 5 0 7 -8 4 -8 -3
-18 -1 -22 5 -3 7 3 11 15 11 15 0 20 5 18 17 -4 21 -33 29 -43 13z m35 -10
c0 -5 -7 -10 -15 -10 -8 0 -15 5 -15 10 0 6 7 10 15 10 8 0 15 -4 15 -10z"/>
<path d="M2392 395 c-1 -27 2 -45 6 -39 4 6 15 13 25 17 21 8 20 59 -1 63 -7
1 -8 0 -2 -3 16 -7 12 -53 -4 -53 -9 0 -16 13 -19 33 -3 23 -4 18 -5 -18z"/>
<path d="M2467 433 c-3 -5 6 -9 19 -9 13 -1 21 2 18 7 -6 11 -31 12 -37 2z"/>
<path d="M2521 403 c2 -35 2 -35 6 -8 3 16 10 33 16 37 8 5 6 8 -5 8 -14 0
-18 -8 -17 -37z"/>
<path d="M2566 431 c-3 -5 3 -7 14 -4 11 3 20 1 20 -5 0 -5 -9 -12 -21 -15
-22 -6 -22 -29 -1 -33 7 -1 8 0 2 3 -15 7 -12 23 4 23 8 0 17 -8 20 -17 2 -10
4 -2 3 17 -2 34 -27 54 -41 31z"/>
<path d="M2637 433 c-4 -3 -7 -17 -7 -30 0 -26 26 -41 42 -25 8 8 5 9 -11 5
-17 -4 -21 -1 -21 20 0 16 7 27 18 30 14 4 14 5 1 6 -9 0 -19 -2 -22 -6z"/>
<path d="M2693 405 c0 -22 2 -30 4 -17 2 12 2 30 0 40 -3 9 -5 -1 -4 -23z"/>
<path d="M2724 426 c-9 -23 0 -51 17 -54 19 -4 32 23 24 49 -7 22 -33 25 -41
5z m31 -21 c0 -10 -6 -20 -12 -22 -8 -3 -13 5 -13 22 0 17 5 25 13 23 6 -3 12
-13 12 -23z"/>
<path d="M2781 400 c1 -34 1 -34 8 -6 9 42 29 44 34 4 l4 -33 1 37 c2 35 0 38
-23 36 -22 -2 -25 -7 -24 -38z"/>
<path d="M2261 404 c0 -11 3 -14 6 -6 3 7 2 16 -1 19 -3 4 -6 -2 -5 -13z"/>
<path d="M2080 390 c0 -15 6 -19 24 -18 14 1 22 6 20 10 -3 4 -11 5 -19 1 -8
-3 -15 0 -15 5 0 6 10 13 23 15 19 4 18 4 -5 6 -22 1 -28 -4 -28 -19z"/>
<path d="M2460 390 c0 -15 6 -19 24 -18 14 1 22 6 20 10 -3 4 -11 5 -19 1 -8
-3 -15 0 -15 5 0 6 10 13 23 15 19 4 18 4 -5 6 -22 1 -28 -4 -28 -19z"/>
</g>
</svg>
