<?xml version="1.0" standalone="no"?>
<!DOCTYPE svg PUBLIC "-//W3C//DTD SVG 20010904//EN"
 "http://www.w3.org/TR/2001/REC-SVG-20010904/DTD/svg10.dtd">
<svg version="1.0" xmlns="http://www.w3.org/2000/svg"
 width="401.000000pt" height="221.000000pt" viewBox="0 0 401.000000 221.000000"
 preserveAspectRatio="xMidYMid meet">

<g transform="translate(0.000000,221.000000) scale(0.100000,-0.100000)"
fill="#000000" stroke="none">
<path d="M752 2157 l-52 -53 0 -1052 0 -1052 1603 0 1603 0 52 53 52 53 0
1052 0 1052 -1603 0 -1603 0 -52 -53z m3246 -1007 l2 -1046 -45 -44 -45 -44 0
1044 0 1044 43 46 42 45 -45 -42 -46 -43 -1594 0 -1594 0 44 45 44 45 1596 -2
1595 -3 3 -1045z m-98 -95 l0 -1045 -555 0 c-521 0 -555 1 -556 18 -1 16 -2
16 -6 0 -4 -17 -64 -18 -1039 -18 l-1034 0 0 1045 0 1045 1595 0 1595 0 0
-1045z"/>
<path d="M1450 1755 l0 -255 905 0 905 0 0 255 0 255 -905 0 -905 0 0 -255z
m1800 0 l0 -245 -895 0 -895 0 0 245 0 245 895 0 895 0 0 -245z"/>
<path d="M1953 1770 c0 -30 2 -43 4 -27 2 15 2 39 0 55 -2 15 -4 2 -4 -28z"/>
<path d="M1870 1765 c0 -44 0 -45 33 -44 30 2 30 2 5 6 -16 2 -28 10 -28 18 0
8 12 16 28 18 l27 4 -27 2 c-17 0 -28 7 -28 15 0 8 12 17 28 19 25 4 25 4 -5
6 -33 1 -33 0 -33 -44z"/>
<path d="M1983 1755 c0 -22 2 -30 4 -17 2 12 2 30 0 40 -3 9 -5 -1 -4 -23z"/>
<path d="M2015 1771 c-9 -29 5 -52 29 -49 16 2 22 11 24 36 3 28 0 32 -22 32
-15 0 -27 -7 -31 -19z m45 -10 c0 -11 -5 -23 -11 -27 -15 -9 -33 12 -26 30 9
23 37 20 37 -3z"/>
<path d="M2094 1776 c-11 -28 0 -51 26 -53 22 -1 22 -1 3 4 -29 6 -30 23 -2
23 14 0 19 5 17 17 -4 23 -36 29 -44 9z m36 -6 c0 -5 -7 -10 -15 -10 -8 0 -15
5 -15 10 0 6 7 10 15 10 8 0 15 -4 15 -10z"/>
<path d="M2203 1758 c1 -26 7 -34 25 -36 12 -2 22 1 22 6 0 6 -9 8 -19 5 -16
-4 -21 2 -25 26 l-6 31 3 -32z"/>
<path d="M2281 1750 c1 -34 1 -34 8 -6 9 42 29 44 34 4 l4 -33 1 37 c2 35 0
38 -23 36 -22 -2 -25 -7 -24 -38z"/>
<path d="M2373 1784 c23 -7 22 -20 -4 -27 -27 -7 -20 -31 10 -35 20 -3 22 0
19 30 -2 24 -8 33 -23 35 -16 1 -16 1 -2 -3z m17 -44 c0 -5 -7 -10 -15 -10 -8
0 -15 5 -15 10 0 6 7 10 15 10 8 0 15 -4 15 -10z"/>
<path d="M2474 1776 c-10 -26 0 -51 21 -51 16 0 20 7 20 30 0 33 -30 49 -41
21z m36 -21 c0 -16 -6 -25 -15 -25 -9 0 -15 9 -15 25 0 16 6 25 15 25 9 0 15
-9 15 -25z"/>
<path d="M2541 1740 c0 -25 3 -39 6 -32 2 6 10 12 18 12 20 0 37 27 30 49 -4
14 -14 20 -31 19 -22 -2 -24 -7 -23 -48z m44 14 c0 -10 -8 -20 -17 -22 -18 -3
-26 27 -11 42 12 11 28 0 28 -20z"/>
<path d="M2626 1781 c-4 -5 3 -7 14 -4 23 6 26 13 6 13 -8 0 -17 -4 -20 -9z"/>
<path d="M2683 1755 c0 -22 2 -30 4 -17 2 12 2 30 0 40 -3 9 -5 -1 -4 -23z"/>
<path d="M2717 1783 c-4 -3 -7 -17 -7 -30 0 -26 26 -41 42 -25 8 8 5 9 -11 5
-17 -4 -21 -1 -21 21 0 28 17 34 40 14 12 -11 12 -10 1 5 -14 17 -33 22 -44
10z"/>
<path d="M2780 1776 c0 -8 5 -18 10 -21 6 -4 9 -1 8 6 -2 7 5 14 14 17 12 2
18 -5 21 -25 4 -28 4 -28 3 2 -1 25 -6 31 -28 33 -20 2 -28 -1 -28 -12z"/>
<path d="M2610 1754 c0 -17 27 -37 42 -31 8 4 7 6 -4 6 -9 1 -22 9 -27 19 -6
9 -11 12 -11 6z"/>
<path d="M2028 1703 c6 -2 18 -2 25 0 6 3 1 5 -13 5 -14 0 -19 -2 -12 -5z"/>
<path d="M1750 955 l0 -405 605 0 605 0 0 405 0 405 -605 0 -605 0 0 -405z
m1200 300 l0 -95 -595 0 -595 0 0 95 0 95 595 0 595 0 0 -95z m0 -200 l0 -95
-595 0 -595 0 0 95 0 95 595 0 595 0 0 -95z m0 -200 l0 -95 -595 0 -595 0 0
95 0 95 595 0 595 0 0 -95z m0 -200 l0 -95 -595 0 -595 0 0 95 0 95 595 0 595
0 0 -95z"/>
<path d="M1930 1296 c-15 -20 -9 -56 12 -70 14 -8 21 -6 35 9 16 17 17 18 1 6
-25 -18 -48 -7 -48 24 0 31 24 42 48 24 15 -13 16 -12 3 4 -16 21 -35 22 -51
3z"/>
<path d="M2273 1265 c0 -27 2 -38 4 -22 2 15 2 37 0 50 -2 12 -4 0 -4 -28z"/>
<path d="M2698 1300 c-5 -17 3 -80 11 -80 7 0 6 79 -2 86 -3 3 -7 0 -9 -6z"/>
<path d="M2290 1290 c0 -5 5 -10 11 -10 5 0 7 5 4 10 -3 6 -8 10 -11 10 -2 0
-4 -4 -4 -10z"/>
<path d="M2014 1276 c-9 -23 0 -51 17 -54 19 -4 32 23 24 49 -7 22 -33 25 -41
5z m31 -21 c0 -10 -6 -20 -12 -22 -8 -3 -13 5 -13 22 0 17 5 25 13 23 6 -3 12
-13 12 -23z"/>
<path d="M2071 1250 c1 -34 1 -34 8 -6 9 42 29 44 34 4 l4 -33 1 37 c2 35 0
38 -23 36 -22 -2 -25 -7 -24 -38z"/>
<path d="M2144 1278 c-4 -6 0 -16 9 -23 22 -16 21 -22 0 -28 -16 -4 -16 -5 -1
-6 24 -2 34 20 15 34 -21 15 -22 29 -1 21 8 -3 12 -2 9 4 -8 13 -22 13 -31 -2z"/>
<path d="M2203 1258 c1 -26 7 -33 25 -34 19 -1 22 3 21 35 -1 35 -2 35 -8 7
-8 -40 -28 -44 -35 -7 l-6 31 3 -32z"/>
<path d="M2336 1281 c-4 -5 3 -7 14 -4 23 6 26 13 6 13 -8 0 -17 -4 -20 -9z"/>
<path d="M2391 1253 c2 -35 2 -35 6 -8 3 16 10 33 16 37 8 5 6 8 -5 8 -14 0
-18 -8 -17 -37z"/>
<path d="M2471 1253 c2 -35 2 -35 6 -8 3 16 10 33 16 37 8 5 6 8 -5 8 -14 0
-18 -8 -17 -37z"/>
<path d="M2517 1283 c-16 -15 -5 -33 19 -33 20 0 25 4 20 16 -3 9 -6 18 -6 20
0 7 -26 5 -33 -3z m28 -13 c3 -5 -1 -10 -9 -10 -9 0 -16 5 -16 10 0 6 4 10 9
10 6 0 13 -4 16 -10z"/>
<path d="M2590 1286 c0 -2 7 -7 16 -10 8 -3 12 -2 9 4 -6 10 -25 14 -25 6z"/>
<path d="M2653 1284 c24 -8 22 -28 -3 -21 -12 3 -20 0 -20 -8 0 -8 9 -11 25
-7 31 5 30 36 0 39 -16 1 -16 1 -2 -3z"/>
<path d="M2736 1281 c-3 -5 3 -7 14 -4 11 3 20 1 20 -5 0 -5 -9 -12 -21 -15
-22 -6 -22 -29 -1 -33 7 -1 8 0 2 3 -15 7 -12 23 4 23 8 0 17 -8 20 -17 2 -10
4 -2 3 17 -2 34 -27 54 -41 31z"/>
<path d="M2353 1263 c-33 -6 -31 -43 1 -41 14 1 22 6 20 10 -3 4 -11 5 -19 1
-8 -3 -15 0 -15 6 0 6 6 11 14 11 8 0 18 5 21 10 3 6 5 9 3 9 -2 -1 -13 -4
-25 -6z"/>
<path d="M2571 1254 c0 -11 3 -14 6 -6 3 7 2 16 -1 19 -3 4 -6 -2 -5 -13z"/>
<path d="M2517 1228 c2 -5 10 -8 18 -8 8 0 16 3 18 8 3 4 -5 7 -18 7 -13 0
-21 -3 -18 -7z"/>
<path d="M2595 1230 c-16 -7 -17 -9 -3 -9 9 -1 20 4 23 9 7 11 7 11 -20 0z"/>
<path d="M2655 1230 c-16 -7 -17 -9 -3 -9 9 -1 20 4 23 9 7 11 7 11 -20 0z"/>
<path d="M1987 1103 c-11 -11 -8 -20 7 -20 8 0 12 6 9 14 -6 15 -7 15 -16 6z"/>
<path d="M2658 1100 c-5 -17 3 -80 11 -80 7 0 6 79 -2 86 -3 3 -7 0 -9 -6z"/>
<path d="M2044 1066 c-7 -28 1 -46 19 -46 8 0 8 3 -1 9 -16 10 -12 43 6 49 8
2 12 -8 12 -31 0 -29 -4 -37 -22 -40 -20 -5 -20 -5 2 -4 22 2 25 7 28 45 3 37
1 42 -17 42 -14 0 -23 -9 -27 -24z"/>
<path d="M2111 1053 c2 -35 2 -35 6 -8 3 16 10 33 16 37 8 5 6 8 -5 8 -14 0
-18 -8 -17 -37z"/>
<path d="M2157 1084 c-4 -4 -7 -18 -7 -31 0 -26 26 -41 42 -25 8 8 5 9 -11 5
-12 -3 -21 -1 -21 6 0 6 9 11 21 11 14 0 19 5 17 17 -3 19 -29 29 -41 17z m33
-14 c0 -5 -7 -10 -15 -10 -8 0 -15 5 -15 10 0 6 7 10 15 10 8 0 15 -4 15 -10z"/>
<path d="M2224 1078 c-4 -7 -3 -8 5 -4 6 4 19 2 27 -5 12 -10 13 -9 8 5 -7 19
-30 21 -40 4z"/>
<path d="M2286 1081 c-3 -5 3 -7 14 -4 11 3 20 1 20 -5 0 -5 -9 -12 -21 -15
-22 -6 -22 -29 -1 -33 7 -1 8 0 2 3 -15 7 -12 23 4 23 8 0 17 -8 20 -17 2 -10
4 -2 3 17 -2 34 -27 54 -41 31z"/>
<path d="M2351 1053 c2 -35 2 -35 6 -8 3 16 10 33 16 37 8 5 6 8 -5 8 -14 0
-18 -8 -17 -37z"/>
<path d="M2421 1053 c2 -35 2 -35 6 -8 3 16 10 33 16 37 8 5 6 8 -5 8 -14 0
-18 -8 -17 -37z"/>
<path d="M2483 1084 c24 -8 22 -28 -3 -21 -12 3 -20 0 -20 -8 0 -8 9 -11 25
-7 31 5 30 36 0 39 -16 1 -16 1 -2 -3z"/>
<path d="M2537 1083 c-4 -3 -7 -17 -7 -30 0 -26 26 -41 42 -25 8 8 5 9 -11 5
-17 -4 -21 -1 -21 20 0 16 7 27 18 30 14 4 14 5 1 6 -9 0 -19 -2 -22 -6z"/>
<path d="M2597 1084 c-4 -4 -7 -18 -7 -31 0 -26 26 -41 42 -25 8 8 5 9 -11 5
-12 -3 -21 -1 -21 6 0 6 9 11 21 11 14 0 19 5 17 17 -3 19 -29 29 -41 17z m33
-14 c0 -5 -7 -10 -15 -10 -8 0 -15 5 -15 10 0 6 7 10 15 10 8 0 15 -4 15 -10z"/>
<path d="M2696 1081 c-3 -5 3 -7 14 -4 11 3 20 1 20 -5 0 -5 -9 -12 -20 -15
-30 -8 -26 -37 5 -35 22 2 26 7 23 33 -3 30 -30 47 -42 26z m29 -41 c-3 -5
-10 -10 -16 -10 -5 0 -9 5 -9 10 0 6 7 10 16 10 8 0 12 -4 9 -10z"/>
<path d="M1966 1053 c-10 -26 -6 -37 7 -21 6 9 21 18 32 20 16 3 15 5 -7 10
-18 3 -29 0 -32 -9z"/>
<path d="M2234 1024 c16 -11 16 -13 -1 -17 -14 -4 -15 -5 -2 -6 14 -1 49 27
38 30 -2 0 -15 2 -28 3 -21 3 -22 2 -7 -10z"/>
<path d="M2485 1030 c-16 -7 -17 -9 -3 -9 9 -1 20 4 23 9 7 11 7 11 -20 0z"/>
<path d="M2020 865 c0 -44 0 -45 33 -44 30 2 30 2 5 6 -16 2 -28 10 -28 18 0
8 12 16 28 18 l27 4 -27 2 c-17 0 -28 7 -28 15 0 8 12 17 28 19 25 4 25 4 -5
6 -33 1 -33 0 -33 -44z"/>
<path d="M2143 865 c0 -27 2 -38 4 -22 2 15 2 37 0 50 -2 12 -4 0 -4 -28z"/>
<path d="M2598 900 c-5 -17 3 -80 11 -80 7 0 6 79 -2 86 -3 3 -7 0 -9 -6z"/>
<path d="M2190 890 c0 -5 5 -10 11 -10 5 0 7 5 4 10 -3 6 -8 10 -11 10 -2 0
-4 -4 -4 -10z"/>
<path d="M2104 876 c-8 -22 -1 -49 14 -52 7 -1 8 0 2 3 -14 7 -13 50 3 56 9 4
9 6 -1 6 -7 1 -15 -5 -18 -13z"/>
<path d="M2173 855 c0 -22 2 -30 4 -17 2 12 2 30 0 40 -3 9 -5 -1 -4 -23z"/>
<path d="M2237 883 c-3 -5 5 -8 18 -8 13 0 21 3 18 8 -2 4 -10 7 -18 7 -8 0
-16 -3 -18 -7z"/>
<path d="M2291 853 c2 -35 2 -35 6 -8 3 16 10 33 16 37 8 5 6 8 -5 8 -14 0
-18 -8 -17 -37z"/>
<path d="M2371 853 c2 -35 2 -35 6 -8 3 16 10 33 16 37 8 5 6 8 -5 8 -14 0
-18 -8 -17 -37z"/>
<path d="M2417 883 c-16 -15 -5 -33 19 -33 20 0 25 4 20 16 -3 9 -6 18 -6 20
0 7 -26 5 -33 -3z m28 -13 c3 -5 -1 -10 -9 -10 -9 0 -16 5 -16 10 0 6 4 10 9
10 6 0 13 -4 16 -10z"/>
<path d="M2480 886 c0 -2 9 -6 20 -9 11 -3 18 -1 14 4 -5 9 -34 13 -34 5z"/>
<path d="M2553 884 c24 -8 22 -28 -3 -21 -12 3 -20 0 -20 -8 0 -8 9 -11 25 -7
31 5 30 36 0 39 -16 1 -16 1 -2 -3z"/>
<path d="M2636 881 c-3 -5 3 -7 14 -4 11 3 20 1 20 -5 0 -5 -9 -12 -21 -15
-22 -6 -22 -29 -1 -33 7 -1 8 0 2 3 -15 7 -12 23 4 23 8 0 17 -8 20 -17 2 -10
4 -2 3 17 -2 34 -27 54 -41 31z"/>
<path d="M2471 854 c0 -11 3 -14 6 -6 3 7 2 16 -1 19 -3 4 -6 -2 -5 -13z"/>
<path d="M2230 841 c0 -16 6 -20 24 -19 30 3 28 32 -2 36 -17 3 -22 -2 -22
-17z m35 -1 c-3 -5 -10 -10 -16 -10 -5 0 -9 5 -9 10 0 6 7 10 16 10 8 0 12 -4
9 -10z"/>
<path d="M2417 828 c2 -5 10 -8 18 -8 8 0 16 3 18 8 3 4 -5 7 -18 7 -13 0 -21
-3 -18 -7z"/>
<path d="M2495 830 c-16 -7 -17 -9 -3 -9 9 -1 20 4 23 9 7 11 7 11 -20 0z"/>
<path d="M2555 830 c-16 -7 -17 -9 -3 -9 9 -1 20 4 23 9 7 11 7 11 -20 0z"/>
<path d="M2010 665 c0 -45 1 -46 28 -43 24 3 27 7 27 43 0 36 -3 40 -27 43
-27 3 -28 2 -28 -43z m50 20 c0 -8 -9 -15 -20 -15 -11 0 -20 7 -20 15 0 8 9
15 20 15 11 0 20 -7 20 -15z m0 -40 c0 -8 -9 -15 -20 -15 -11 0 -20 7 -20 15
0 8 9 15 20 15 11 0 20 -7 20 -15z"/>
<path d="M2608 700 c-5 -17 3 -80 11 -80 7 0 6 79 -2 86 -3 3 -7 0 -9 -6z"/>
<path d="M2094 676 c-10 -26 0 -51 21 -51 16 0 20 7 20 30 0 33 -30 49 -41 21z
m36 -21 c0 -16 -6 -25 -15 -25 -9 0 -15 9 -15 25 0 16 6 25 15 25 9 0 15 -9
15 -25z"/>
<path d="M2161 653 c2 -35 2 -35 6 -8 3 16 10 33 16 37 8 5 6 8 -5 8 -14 0
-18 -8 -17 -37z"/>
<path d="M2201 653 c2 -35 2 -35 6 -8 3 16 10 33 16 37 8 5 6 8 -5 8 -14 0
-18 -8 -17 -37z"/>
<path d="M2246 681 c-4 -5 3 -7 14 -4 23 6 26 13 6 13 -8 0 -17 -4 -20 -9z"/>
<path d="M2301 653 c2 -35 2 -35 6 -8 3 16 10 33 16 37 8 5 6 8 -5 8 -14 0
-18 -8 -17 -37z"/>
<path d="M2381 653 c2 -35 2 -35 6 -8 3 16 10 33 16 37 8 5 6 8 -5 8 -14 0
-18 -8 -17 -37z"/>
<path d="M2427 683 c-4 -3 -7 -17 -7 -30 0 -26 26 -41 42 -25 8 8 5 9 -11 5
-12 -3 -21 -1 -21 6 0 6 9 11 21 11 15 0 19 4 15 16 -3 9 -6 18 -6 20 0 7 -26
5 -33 -3z m28 -13 c3 -5 -1 -10 -9 -10 -9 0 -16 5 -16 10 0 6 4 10 9 10 6 0
13 -4 16 -10z"/>
<path d="M2500 686 c0 -2 7 -7 16 -10 8 -3 12 -2 9 4 -6 10 -25 14 -25 6z"/>
<path d="M2546 675 c-10 -28 -7 -32 19 -27 17 3 25 10 23 21 -4 22 -34 26 -42
6z m34 -5 c0 -5 -7 -10 -16 -10 -8 0 -12 5 -9 10 3 6 10 10 16 10 5 0 9 -4 9
-10z"/>
<path d="M2646 681 c-3 -5 3 -7 14 -4 11 3 20 1 20 -5 0 -5 -9 -12 -21 -15
-22 -6 -22 -29 -1 -33 7 -1 8 0 2 3 -15 7 -12 23 4 23 8 0 17 -8 20 -17 2 -10
4 -2 3 17 -2 34 -27 54 -41 31z"/>
<path d="M2263 663 c-32 -6 -32 -43 0 -41 17 2 23 8 23 25 0 13 0 22 0 22 -1
-1 -11 -4 -23 -6z m12 -23 c-3 -5 -10 -10 -16 -10 -5 0 -9 5 -9 10 0 6 7 10
16 10 8 0 12 -4 9 -10z"/>
<path d="M2481 654 c0 -11 3 -14 6 -6 3 7 2 16 -1 19 -3 4 -6 -2 -5 -13z"/>
<path d="M2505 630 c-16 -7 -17 -9 -3 -9 9 -1 20 4 23 9 7 11 7 11 -20 0z"/>
<path d="M2565 630 c-16 -7 -17 -9 -3 -9 9 -1 20 4 23 9 7 11 7 11 -20 0z"/>
<path d="M1930 303 c0 -7 334 -7 715 0 83 1 -45 4 -282 5 -238 1 -433 -1 -433
-5z"/>
<path d="M2770 245 c0 -25 5 -45 10 -45 6 0 10 20 10 45 0 25 -4 45 -10 45 -5
0 -10 -20 -10 -45z"/>
<path d="M1983 203 c-7 -2 -13 -12 -13 -21 0 -15 1 -15 13 0 6 9 21 18 32 21
l20 5 -20 0 c-11 0 -26 -2 -32 -5z"/>
<path d="M2054 176 c-11 -28 1 -51 26 -53 22 -1 22 -1 3 4 -13 2 -23 9 -23 14
0 5 10 9 23 10 21 1 21 1 -3 8 -17 5 -21 9 -12 15 6 4 17 4 24 0 7 -4 8 -3 4
4 -10 17 -36 15 -42 -2z"/>
<path d="M2121 150 c1 -27 3 -29 6 -10 2 14 11 30 20 37 13 10 13 12 -6 10
-17 -1 -21 -7 -20 -37z"/>
<path d="M2177 170 c-3 -11 -4 -20 -3 -20 1 0 9 9 19 20 13 15 14 20 3 20 -7
0 -16 -9 -19 -20z"/>
<path d="M2243 184 c23 -7 22 -20 -4 -27 -27 -7 -20 -31 10 -35 20 -3 22 0 19
30 -2 24 -8 33 -23 35 -16 1 -16 1 -2 -3z m17 -44 c0 -5 -7 -10 -15 -10 -8 0
-15 5 -15 10 0 6 7 10 15 10 8 0 15 -4 15 -10z"/>
<path d="M2295 179 c-11 -17 -2 -18 19 -3 17 12 17 14 4 14 -9 0 -20 -5 -23
-11z"/>
<path d="M2397 183 c-13 -12 -7 -33 8 -33 21 0 19 -17 -2 -24 -14 -4 -14 -4 2
-3 24 3 34 37 11 37 -22 0 -20 17 2 23 14 4 14 5 1 6 -9 0 -19 -2 -22 -6z"/>
<path d="M2454 176 c-11 -28 1 -51 26 -53 22 -1 22 -1 3 4 -13 2 -23 8 -23 13
0 5 10 11 23 13 l22 4 -22 2 c-13 0 -23 6 -23 12 0 6 9 9 20 6 11 -3 18 -1 14
4 -8 14 -34 11 -40 -5z"/>
<path d="M2524 178 c-4 -6 1 -17 11 -25 22 -15 39 -17 30 -3 -3 6 -13 10 -21
10 -20 0 -18 18 4 23 15 4 15 5 0 6 -9 0 -20 -4 -24 -11z"/>
<path d="M2583 155 c0 -22 2 -30 4 -17 2 12 2 30 0 40 -3 9 -5 -1 -4 -23z"/>
<path d="M2626 181 c-3 -5 3 -7 14 -4 16 4 20 0 20 -21 0 -30 -16 -34 -37 -8
-13 15 -13 15 -3 -6 16 -33 45 -25 45 13 0 30 -26 47 -39 26z"/>
<path d="M2693 155 c0 -22 2 -30 4 -17 2 12 2 30 0 40 -3 9 -5 -1 -4 -23z"/>
<path d="M2717 183 c6 -4 13 -22 16 -38 4 -27 5 -27 3 4 0 21 -7 36 -16 38
-10 3 -11 2 -3 -4z"/>
<path d="M1970 148 c0 -18 45 -36 57 -24 4 3 -3 6 -15 6 -11 0 -26 8 -31 18
-10 16 -10 16 -11 0z"/>
<path d="M2777 133 c-10 -9 -9 -23 1 -23 5 0 9 7 9 15 0 17 -1 18 -10 8z"/>
<path d="M2528 123 c6 -2 18 -2 25 0 6 3 1 5 -13 5 -14 0 -19 -2 -12 -5z"/>
<path d="M1924 80 c0 -47 6 -45 13 4 2 20 1 36 -4 36 -5 0 -9 -18 -9 -40z"/>
<path d="M2775 90 c-3 -5 -2 -18 4 -27 7 -14 9 -12 8 10 -2 30 -3 31 -12 17z"/>
</g>
</svg>
