<?xml version="1.0" standalone="no"?>
<!DOCTYPE svg PUBLIC "-//W3C//DTD SVG 20010904//EN"
 "http://www.w3.org/TR/2001/REC-SVG-20010904/DTD/svg10.dtd">
<svg version="1.0" xmlns="http://www.w3.org/2000/svg"
 width="401.000000pt" height="221.000000pt" viewBox="0 0 401.000000 221.000000"
 preserveAspectRatio="xMidYMid meet">

<g transform="translate(0.000000,221.000000) scale(0.100000,-0.100000)"
fill="#000000" stroke="none">
<path d="M752 2157 l-52 -53 0 -1052 0 -1052 1603 0 1603 0 52 53 52 53 0
1052 0 1052 -1603 0 -1603 0 -52 -53z m3246 -1007 l2 -1046 -45 -44 -45 -44 0
1044 0 1044 43 46 42 45 -45 -42 -46 -43 -1594 0 -1594 0 44 45 44 45 1596 -2
1595 -3 3 -1045z m-98 -95 l0 -1045 -470 0 -470 0 0 155 0 155 -605 0 -605 0
0 -155 0 -155 -520 0 -520 0 0 1045 0 1045 1595 0 1595 0 0 -1045z m-950 -890
l0 -145 -595 0 -595 0 0 145 0 145 595 0 595 0 0 -145z"/>
<path d="M1450 1805 l0 -255 150 0 150 0 0 -200 0 -200 605 0 605 0 0 200 0
200 150 0 150 0 0 255 0 255 -905 0 -905 0 0 -255z m1800 0 l0 -245 -895 0
-895 0 0 245 0 245 895 0 895 0 0 -245z m-300 -350 l0 -95 -595 0 -595 0 0 95
0 95 595 0 595 0 0 -95z m0 -200 l0 -95 -595 0 -595 0 0 95 0 95 595 0 595 0
0 -95z"/>
<path d="M2083 1820 c0 -30 2 -43 4 -27 2 15 2 39 0 55 -2 15 -4 2 -4 -28z"/>
<path d="M1582 1848 c-28 -28 -7 -79 33 -77 17 1 16 2 -5 8 -19 5 -25 13 -25
36 0 23 6 31 25 36 21 6 22 7 5 8 -12 1 -26 -4 -33 -11z"/>
<path d="M2252 1819 c2 -24 8 -44 16 -45 7 -1 8 0 2 3 -12 6 -13 50 -1 55 5 2
2 9 -6 16 -12 12 -14 8 -11 -29z"/>
<path d="M1657 1833 c-4 -3 -7 -17 -7 -30 0 -26 26 -41 42 -25 8 8 5 9 -11 5
-18 -4 -21 -1 -21 22 0 22 4 26 20 22 11 -3 18 -1 14 4 -6 11 -28 12 -37 2z"/>
<path d="M1730 1830 c0 -5 7 -7 15 -4 8 4 15 8 15 10 0 2 -7 4 -15 4 -8 0 -15
-4 -15 -10z"/>
<path d="M1782 1803 c1 -37 1 -37 5 -6 3 19 11 34 21 36 12 3 10 5 -5 6 -20 1
-23 -3 -21 -36z"/>
<path d="M1836 1831 c-4 -5 3 -7 14 -4 23 6 26 13 6 13 -8 0 -17 -4 -20 -9z"/>
<path d="M1904 1826 c-10 -25 0 -51 20 -51 11 0 20 6 22 13 1 7 0 8 -3 2 -10
-20 -33 -10 -33 15 0 25 23 35 33 15 3 -6 4 -5 3 2 -4 19 -35 22 -42 4z"/>
<path d="M2019 1824 c-16 -19 -1 -48 27 -51 13 -2 11 1 -6 9 l-25 12 28 4 c21
2 27 8 23 19 -3 8 -6 17 -6 19 0 11 -29 2 -41 -12z m36 -4 c3 -5 -3 -10 -15
-10 -12 0 -18 5 -15 10 3 6 10 10 15 10 5 0 12 -4 15 -10z"/>
<path d="M2121 1827 c-6 -8 -8 -17 -4 -20 9 -10 53 -8 53 2 0 4 -11 6 -25 3
-31 -6 -33 6 -2 18 15 6 17 9 6 9 -9 1 -22 -5 -28 -12z"/>
<path d="M2194 1826 c-9 -23 0 -51 16 -52 9 0 10 1 3 3 -20 7 -16 51 5 56 16
4 16 5 -1 6 -10 0 -20 -5 -23 -13z"/>
<path d="M2301 1800 c1 -27 3 -29 6 -10 2 14 11 30 20 37 13 10 13 12 -6 10
-17 -1 -21 -7 -20 -37z"/>
<path d="M2354 1826 c-10 -25 0 -51 20 -51 11 0 20 6 22 13 1 7 0 8 -3 2 -10
-20 -33 -10 -33 15 0 25 23 35 33 15 3 -6 4 -5 3 2 -4 19 -35 22 -42 4z"/>
<path d="M2425 1830 c-4 -7 1 -9 18 -4 23 5 26 2 30 -28 l5 -33 -2 35 c-1 28
-5 36 -23 38 -11 2 -24 -2 -28 -8z"/>
<path d="M2503 1805 c0 -22 2 -30 4 -17 2 12 2 30 0 40 -3 9 -5 -1 -4 -23z"/>
<path d="M2534 1826 c-11 -28 1 -51 26 -53 22 -1 22 -1 3 4 -16 3 -23 12 -23
28 0 17 7 25 23 28 l22 4 -23 2 c-12 0 -25 -5 -28 -13z"/>
<path d="M2595 1820 c-7 -23 10 -50 31 -50 18 0 28 38 14 55 -18 21 -38 18
-45 -5z m42 -6 c8 -21 -13 -42 -28 -27 -13 13 -5 43 11 43 6 0 13 -7 17 -16z"/>
<path d="M2723 1808 c1 -26 7 -34 25 -36 12 -2 22 1 22 6 0 6 -9 8 -19 5 -16
-4 -21 2 -25 26 l-6 31 3 -32z"/>
<path d="M2808 1833 c6 -2 18 -2 25 0 6 3 1 5 -13 5 -14 0 -19 -2 -12 -5z"/>
<path d="M2863 1808 c1 -26 7 -34 25 -36 20 -3 22 1 20 35 -1 37 -1 37 -5 6
-5 -42 -30 -43 -37 -3 -6 30 -6 30 -3 -2z"/>
<path d="M2953 1833 c21 -6 22 -19 2 -27 -22 -8 -18 -36 5 -36 11 0 20 4 20
10 0 5 -7 7 -15 4 -8 -4 -15 -1 -15 5 0 6 7 11 15 11 8 0 15 9 15 20 0 14 -6
20 -22 19 -17 -1 -19 -2 -5 -6z"/>
<path d="M3013 1805 c0 -22 2 -30 4 -17 2 12 2 30 0 40 -3 9 -5 -1 -4 -23z"/>
<path d="M3063 1805 c0 -22 2 -30 4 -17 2 12 2 30 0 40 -3 9 -5 -1 -4 -23z"/>
<path d="M3097 1833 c-13 -12 -7 -54 9 -60 8 -3 22 2 30 11 8 9 9 11 2 6 -21
-18 -38 -11 -38 15 0 27 18 33 40 13 12 -11 12 -10 1 5 -14 17 -33 22 -44 10z"/>
<path d="M1860 1813 c-8 -2 -21 -7 -29 -9 -18 -6 5 -34 28 -33 10 0 7 4 -9 12
l-25 11 28 4 c15 2 27 8 27 13 0 5 -1 9 -2 8 -2 0 -10 -3 -18 -6z"/>
<path d="M2795 1810 c3 -6 13 -10 21 -10 20 0 18 -17 -3 -24 -14 -4 -14 -4 2
-3 27 3 25 28 -3 38 -15 6 -21 5 -17 -1z"/>
<path d="M1725 1791 c-3 -5 -2 -12 3 -15 5 -3 9 1 9 9 0 17 -3 19 -12 6z"/>
<path d="M2128 1778 c5 -5 16 -8 23 -6 8 3 3 7 -10 11 -17 4 -21 3 -13 -5z"/>
<path d="M2556 1508 c3 -4 9 -8 15 -8 5 0 9 4 9 8 0 5 -7 9 -15 9 -8 0 -12 -4
-9 -9z"/>
<path d="M2060 1496 c-15 -20 -9 -56 12 -70 14 -8 21 -6 35 9 16 17 17 18 1 6
-25 -18 -48 -7 -48 24 0 31 24 42 48 24 15 -13 16 -12 3 4 -16 21 -35 22 -51
3z"/>
<path d="M2268 1500 c-5 -17 3 -80 11 -80 7 0 6 79 -2 86 -3 3 -7 0 -9 -6z"/>
<path d="M2144 1476 c-9 -23 0 -51 17 -54 19 -4 32 23 24 49 -7 22 -33 25 -41
5z m31 -21 c0 -10 -6 -20 -12 -22 -8 -3 -13 5 -13 22 0 17 5 25 13 23 6 -3 12
-13 12 -23z"/>
<path d="M2201 1451 c1 -35 2 -35 8 -7 9 42 29 44 34 4 l5 -33 -2 35 c-1 29
-5 35 -23 36 -20 1 -23 -3 -22 -35z"/>
<path d="M2301 1453 c2 -35 2 -35 6 -8 3 16 10 33 16 37 8 5 6 8 -5 8 -14 0
-18 -8 -17 -37z"/>
<path d="M2346 1481 c-4 -5 3 -7 14 -4 11 3 20 1 20 -5 0 -5 -9 -12 -21 -15
-22 -6 -22 -29 -1 -33 7 -1 8 0 2 3 -15 7 -12 23 4 23 8 0 17 -8 19 -17 3 -10
5 -1 6 20 1 30 -2 37 -18 37 -11 0 -22 -4 -25 -9z"/>
<path d="M2414 1478 c-4 -6 0 -16 9 -23 22 -16 21 -22 0 -28 -16 -4 -16 -5 -1
-6 24 -2 34 20 15 34 -21 15 -22 29 -2 21 8 -3 15 -1 15 4 0 14 -27 12 -36 -2z"/>
<path d="M2477 1484 c-4 -4 -7 -18 -7 -31 0 -26 26 -41 42 -25 8 8 5 9 -11 5
-12 -3 -21 -1 -21 6 0 6 9 11 21 11 14 0 19 5 17 17 -3 19 -29 29 -41 17z m33
-14 c0 -5 -7 -10 -15 -10 -8 0 -15 5 -15 10 0 6 7 10 15 10 8 0 15 -4 15 -10z"/>
<path d="M2542 1453 c1 -37 1 -37 5 -5 5 35 12 39 32 20 10 -11 11 -10 6 5 -4
9 -16 17 -26 17 -16 0 -19 -7 -17 -37z"/>
<path d="M2606 1481 c-3 -5 3 -7 14 -4 11 3 20 1 20 -5 0 -5 -9 -12 -21 -15
-22 -6 -22 -29 -1 -33 7 -1 8 0 2 3 -15 7 -12 23 4 23 8 0 17 -8 20 -17 2 -10
4 -2 3 17 -2 34 -27 54 -41 31z"/>
<path d="M2013 1265 c0 -27 2 -38 4 -22 2 15 2 37 0 50 -2 12 -4 0 -4 -28z"/>
<path d="M2041 1253 c1 -35 2 -36 8 -9 9 42 29 44 34 4 l5 -33 -2 35 c-1 28
-5 36 -23 38 -21 3 -23 -1 -22 -35z"/>
<path d="M2113 1255 c0 -22 2 -30 4 -17 2 12 2 30 0 40 -3 9 -5 -1 -4 -23z"/>
<path d="M2144 1276 c-9 -23 0 -51 16 -52 9 0 10 1 3 3 -20 7 -16 51 5 56 16
4 16 5 -1 6 -10 0 -20 -5 -23 -13z"/>
<path d="M2203 1255 c0 -22 2 -30 4 -17 2 12 2 30 0 40 -3 9 -5 -1 -4 -23z"/>
<path d="M2226 1281 c-3 -5 3 -7 14 -4 11 3 20 1 20 -5 0 -5 -9 -12 -21 -15
-22 -6 -22 -29 -1 -33 7 -1 8 0 2 3 -15 7 -12 23 4 23 8 0 17 -8 20 -17 2 -10
4 -2 3 17 -2 34 -27 54 -41 31z"/>
<path d="M2291 1253 c2 -35 2 -35 6 -8 3 16 10 33 16 37 8 5 6 8 -5 8 -14 0
-18 -8 -17 -37z"/>
<path d="M2365 1280 c-9 -15 4 -30 23 -29 15 1 15 2 0 6 -10 2 -18 8 -18 13 0
5 8 11 18 13 15 4 15 5 0 6 -9 0 -20 -3 -23 -9z"/>
<path d="M2427 1284 c-4 -4 -7 -15 -7 -24 0 -13 6 -16 25 -12 17 3 25 10 23
21 -3 17 -29 26 -41 15z m33 -14 c0 -5 -7 -10 -16 -10 -8 0 -12 5 -9 10 3 6
10 10 16 10 5 0 9 -4 9 -10z"/>
<path d="M2494 1278 c-4 -6 0 -16 9 -23 22 -16 21 -22 0 -28 -16 -4 -16 -5 -1
-6 24 -2 34 20 15 34 -21 15 -22 29 -1 21 8 -3 12 -2 9 4 -8 13 -22 13 -31 -2z"/>
<path d="M2553 1255 c0 -22 2 -30 4 -17 2 12 2 30 0 40 -3 9 -5 -1 -4 -23z"/>
<path d="M2587 1283 c-13 -12 -7 -54 9 -60 23 -8 38 12 30 41 -6 25 -25 34
-39 19z m28 -28 c0 -10 -6 -20 -12 -22 -8 -3 -13 5 -13 22 0 17 5 25 13 23 6
-3 12 -13 12 -23z"/>
<path d="M2641 1251 c1 -35 2 -35 8 -7 9 42 29 44 34 4 l5 -33 -2 35 c-1 29
-5 35 -23 36 -20 1 -23 -3 -22 -35z"/>
<path d="M2368 1228 c5 -5 16 -8 23 -6 8 3 3 7 -10 11 -17 4 -21 3 -13 -5z"/>
<path d="M2445 1230 c-16 -7 -17 -9 -3 -9 9 -1 20 4 23 9 7 11 7 11 -20 0z"/>
<path d="M1650 805 l0 -205 705 0 705 0 0 205 0 205 -705 0 -705 0 0 -205z
m1400 0 l0 -195 -695 0 -695 0 0 195 0 195 695 0 695 0 0 -195z"/>
<path d="M2786 862 c-3 -4 4 -9 15 -9 23 -2 25 3 4 10 -8 4 -16 3 -19 -1z"/>
<path d="M1883 815 c0 -27 2 -38 4 -22 2 15 2 37 0 50 -2 12 -4 0 -4 -28z"/>
<path d="M2030 850 c0 -5 -6 -10 -14 -10 -21 0 -29 -17 -22 -46 4 -15 14 -24
26 -24 17 0 20 7 20 45 0 25 -2 45 -5 45 -3 0 -5 -4 -5 -10z m0 -45 c0 -26
-14 -33 -25 -15 -9 14 1 40 15 40 5 0 10 -11 10 -25z"/>
<path d="M2920 856 c0 -2 9 -6 20 -9 11 -3 18 -1 14 4 -5 9 -34 13 -34 5z"/>
<path d="M1816 822 c-4 -11 -4 -27 0 -36 8 -20 36 -17 41 4 4 12 3 13 -5 1
-11 -16 -32 -7 -32 14 0 21 21 30 32 14 8 -12 9 -11 5 1 -6 23 -34 24 -41 2z"/>
<path d="M2064 826 c-10 -26 0 -51 21 -51 16 0 20 7 20 30 0 33 -30 49 -41 21z
m34 -18 c-5 -32 -28 -35 -28 -4 0 17 5 26 16 26 10 0 14 -7 12 -22z"/>
<path d="M2164 828 c-4 -6 0 -16 9 -23 21 -15 22 -29 2 -21 -8 3 -15 1 -15 -4
0 -14 27 -12 36 2 4 6 0 16 -9 23 -21 15 -22 29 -1 21 8 -3 12 -2 9 4 -8 13
-22 13 -31 -2z"/>
<path d="M2223 808 c1 -26 7 -33 25 -34 19 -1 22 3 21 35 -1 35 -2 35 -8 7 -8
-40 -28 -44 -35 -7 l-6 31 3 -32z"/>
<path d="M2327 833 c-4 -3 -7 -17 -7 -30 0 -26 26 -41 42 -25 8 8 5 9 -11 5
-17 -4 -21 -1 -21 20 0 16 7 27 18 30 14 4 14 5 1 6 -9 0 -19 -2 -22 -6z"/>
<path d="M2384 826 c-10 -26 0 -51 21 -51 16 0 20 7 20 30 0 33 -30 49 -41 21z
m34 -18 c-5 -32 -28 -35 -28 -4 0 17 5 26 16 26 10 0 14 -7 12 -22z"/>
<path d="M2452 803 l1 -38 4 33 c4 28 7 32 25 26 14 -4 18 -2 14 5 -4 6 -16
11 -27 11 -16 0 -19 -6 -17 -37z"/>
<path d="M2551 803 c2 -35 2 -35 6 -8 3 16 10 33 16 37 8 5 6 8 -5 8 -14 0
-18 -8 -17 -37z"/>
<path d="M2596 831 c-4 -5 3 -7 14 -4 23 6 26 13 6 13 -8 0 -17 -4 -20 -9z"/>
<path d="M2655 830 c-9 -15 4 -30 23 -29 15 1 15 2 0 6 -10 2 -18 8 -18 13 0
5 8 11 18 13 15 4 15 5 0 6 -9 0 -20 -3 -23 -9z"/>
<path d="M2733 834 c24 -8 22 -28 -3 -21 -12 3 -20 0 -20 -8 0 -8 9 -11 25 -7
31 5 30 36 0 39 -16 1 -16 1 -2 -3z"/>
<path d="M2782 803 c1 -37 1 -37 5 -5 3 18 10 32 18 32 8 0 16 -14 18 -32 l5
-33 -2 35 c-1 28 -5 36 -23 38 -21 3 -23 -1 -21 -35z"/>
<path d="M2857 833 c-3 -5 5 -8 18 -8 13 0 21 3 18 8 -2 4 -10 7 -18 7 -8 0
-16 -3 -18 -7z"/>
<path d="M1751 796 c-8 -13 -10 -29 -7 -35 9 -13 33 -14 40 -2 4 5 -3 7 -14 4
-23 -6 -28 15 -8 35 6 6 9 14 7 17 -3 3 -11 -6 -18 -19z"/>
<path d="M1910 805 c0 -5 4 -16 9 -23 6 -11 10 -10 15 4 3 9 4 19 1 22 -3 3
-5 -1 -5 -9 0 -11 -2 -11 -10 1 -5 8 -10 11 -10 5z"/>
<path d="M2590 790 c0 -15 6 -19 24 -18 14 1 22 6 20 10 -3 4 -11 5 -19 1 -8
-3 -15 0 -15 5 0 6 8 13 18 15 13 4 11 5 -5 6 -17 1 -23 -5 -23 -19z"/>
<path d="M2850 790 c0 -15 6 -19 24 -18 14 1 22 6 20 10 -3 4 -11 5 -19 1 -8
-3 -15 0 -15 5 0 6 8 13 18 15 13 4 11 5 -5 6 -17 1 -23 -5 -23 -19z"/>
<path d="M2658 778 c5 -5 16 -8 23 -6 8 3 3 7 -10 11 -17 4 -21 3 -13 -5z"/>
<path d="M2735 780 c-16 -7 -17 -9 -3 -9 9 -1 20 4 23 9 7 11 7 11 -20 0z"/>
<path d="M2020 199 c-9 -16 -9 -28 -1 -45 10 -23 44 -33 55 -15 3 4 -5 6 -18
4 -26 -5 -42 21 -30 51 7 18 39 22 47 6 3 -6 4 -5 3 2 -5 23 -44 21 -56 -3z"/>
<path d="M2608 210 c-5 -17 3 -80 11 -80 7 0 6 79 -2 86 -3 3 -7 0 -9 -6z"/>
<path d="M2101 163 c2 -35 2 -35 6 -8 3 16 10 33 16 37 8 5 6 8 -5 8 -14 0
-18 -8 -17 -37z"/>
<path d="M2147 194 c-4 -4 -7 -18 -7 -31 0 -26 26 -41 42 -25 8 8 5 9 -11 5
-12 -3 -21 -1 -21 6 0 6 9 11 21 11 14 0 19 5 17 17 -3 19 -29 29 -41 17z m33
-14 c0 -5 -7 -10 -15 -10 -8 0 -15 5 -15 10 0 6 7 10 15 10 8 0 15 -4 15 -10z"/>
<path d="M2216 192 c-2 -4 4 -8 15 -8 10 0 19 4 19 8 0 10 -27 10 -34 0z"/>
<path d="M2271 163 c2 -35 2 -35 6 -8 3 16 10 33 16 37 8 5 6 8 -5 8 -14 0
-18 -8 -17 -37z"/>
<path d="M2354 186 c-9 -23 0 -51 16 -52 9 0 10 1 3 3 -7 3 -13 16 -13 30 0
18 4 24 15 19 8 -3 15 -1 15 4 0 16 -30 12 -36 -4z"/>
<path d="M2412 168 c-2 -42 16 -51 39 -20 11 14 11 15 -1 5 -22 -20 -28 -16
-33 20 -4 31 -4 31 -5 -5z"/>
<path d="M2493 194 c24 -8 22 -28 -3 -21 -12 3 -20 0 -20 -8 0 -8 9 -11 25 -7
31 5 30 36 0 39 -16 1 -16 1 -2 -3z"/>
<path d="M2542 163 c1 -37 1 -37 5 -5 3 18 10 32 18 32 8 0 16 -14 18 -32 l5
-33 -2 35 c-1 28 -5 36 -23 38 -21 3 -23 -1 -21 -35z"/>
<path d="M2646 191 c-3 -5 3 -7 14 -4 11 3 20 1 20 -5 0 -5 -9 -12 -20 -15
-30 -8 -26 -37 5 -35 22 2 26 7 23 33 -3 30 -30 47 -42 26z m29 -41 c-3 -5
-10 -10 -16 -10 -5 0 -9 5 -9 10 0 6 7 10 16 10 8 0 12 -4 9 -10z"/>
<path d="M2210 150 c0 -15 6 -19 25 -18 14 1 25 6 25 11 0 5 -9 5 -20 2 -11
-3 -20 -2 -20 4 0 5 8 12 18 14 13 4 11 5 -5 6 -17 1 -23 -5 -23 -19z"/>
<path d="M2495 140 c-16 -7 -17 -9 -3 -9 9 -1 20 4 23 9 7 11 7 11 -20 0z"/>
</g>
</svg>
