<?xml version="1.0" standalone="no"?>
<!DOCTYPE svg PUBLIC "-//W3C//DTD SVG 20010904//EN"
 "http://www.w3.org/TR/2001/REC-SVG-20010904/DTD/svg10.dtd">
<svg version="1.0" xmlns="http://www.w3.org/2000/svg"
 width="511.000000pt" height="331.000000pt" viewBox="0 0 511.000000 331.000000"
 preserveAspectRatio="xMidYMid meet">

<g transform="translate(0.000000,331.000000) scale(0.100000,-0.100000)"
fill="#000000" stroke="none">
<path d="M52 3257 l-52 -53 0 -1602 0 -1602 2503 0 2503 0 52 53 52 53 0 1602
0 1602 -2503 0 -2503 0 -52 -53z m5046 -1557 l2 -1596 -45 -44 -45 -44 0 1594
0 1594 43 46 42 45 -45 -42 -46 -43 -2494 0 -2494 0 44 45 44 45 2496 -2 2495
-3 3 -1595z m-98 1155 l0 -345 -800 0 -800 0 0 55 0 55 -850 0 -850 0 0 -55 0
-55 -845 0 -845 0 0 345 0 345 2495 0 2495 0 0 -345z m-3300 -500 l0 -145
-845 0 -845 0 0 145 0 145 845 0 845 0 0 -145z m3300 0 l0 -145 -795 0 -795 0
0 145 0 145 795 0 795 0 0 -145z m-2717 -62 c-7 -2 -13 -20 -13 -38 0 -50 28
-65 123 -65 88 0 117 -11 117 -42 0 -25 -27 -58 -47 -58 -11 0 -9 -10 8 -40
13 -22 28 -40 35 -40 17 0 36 82 21 92 -7 4 4 8 25 8 40 0 39 3 56 -85 l8 -40
44 63 c44 62 44 62 93 62 40 0 53 -5 78 -29 32 -33 37 -62 13 -85 -32 -32 -91
-8 -77 32 8 20 20 14 19 -10 -1 -17 5 -23 19 -23 32 0 28 62 -5 87 -40 30 -55
16 -69 -63 -10 -55 -10 -73 -1 -84 11 -13 5 -15 -41 -15 -46 0 -50 2 -35 13
15 11 51 125 42 134 -1 2 -27 -32 -56 -74 -59 -85 -61 -84 -75 15 -8 61 -15
58 -39 -12 -12 -37 -13 -53 -5 -63 9 -10 5 -13 -24 -13 -59 0 -105 -60 -72
-94 9 -9 21 -16 26 -16 17 0 22 30 8 47 -12 14 -12 16 1 11 21 -7 19 -48 -2
-62 -13 -8 -23 -8 -35 0 -52 33 -40 88 26 120 53 26 75 64 36 64 -27 0 -49 19
-71 62 -18 35 -35 33 -45 -6 -6 -19 -4 -29 7 -33 30 -11 12 -23 -36 -23 -27 0
-50 5 -50 10 0 6 6 10 14 10 8 0 20 26 31 68 10 37 20 72 22 79 3 6 -12 14
-36 18 -41 7 -81 42 -81 72 0 25 20 53 38 52 10 0 12 -3 5 -6z m46 -40 c-6 -7
-17 -13 -23 -13 -6 0 -5 4 3 9 9 6 12 18 8 32 -6 23 -5 23 8 5 11 -14 12 -23
4 -33z m-629 -408 l0 -355 850 0 850 0 0 355 0 355 800 0 800 0 0 -812 c-1
-640 -4 -824 -14 -863 -10 -36 -15 -44 -19 -30 -4 18 -5 18 -6 -2 -1 -16 -7
-23 -21 -23 -11 0 -20 -4 -20 -10 0 -15 -16 -12 -34 6 -12 12 -16 12 -16 2 -1
-7 -8 3 -17 22 -9 19 -15 39 -14 44 1 4 -3 24 -9 42 -9 28 -16 33 -33 29 -12
-3 -35 -7 -51 -9 -40 -7 -42 -12 -6 -20 31 -6 31 -6 24 -53 -4 -29 -15 -56
-28 -68 -17 -17 -21 -32 -22 -95 -2 -83 -9 -110 -30 -110 -8 0 -14 -4 -14 -10
0 -5 -5 -10 -11 -10 -8 0 -8 4 0 13 8 11 5 19 -13 36 -23 21 -30 23 -94 16
-93 -9 -113 3 -105 62 4 28 2 43 -5 43 -6 0 -17 19 -24 43 -6 23 -18 52 -26
65 -17 26 -18 25 28 39 l35 11 -37 1 c-37 1 -70 29 -83 72 -12 37 -20 18 -20
-49 -1 -41 -7 -79 -17 -99 l-16 -33 28 15 c41 21 42 19 10 -15 -16 -17 -43
-33 -62 -36 -26 -4 -30 -3 -18 5 12 9 9 10 -13 5 -38 -9 -73 17 -81 60 -7 35
-22 54 -34 41 -3 -3 -2 -9 4 -13 6 -4 14 -24 18 -44 9 -52 49 -78 118 -78 38
0 49 -3 38 -10 -25 -16 7 -12 41 5 16 9 27 21 23 26 -4 7 1 7 15 0 14 -8 21
-8 21 -1 0 5 6 10 13 10 6 -1 -7 -18 -30 -39 -37 -34 -43 -44 -43 -80 0 -22 5
-41 10 -41 6 0 10 4 10 9 0 13 33 6 38 -8 2 -7 -10 -17 -27 -24 -42 -15 -43
-47 -1 -47 57 0 30 -16 -29 -18 -59 -2 -60 -1 -58 26 2 22 -3 28 -23 30 -14 2
-30 8 -36 13 -6 5 -32 6 -58 3 -34 -5 -44 -10 -34 -16 9 -7 8 -8 -5 -4 -10 3
-25 6 -32 6 -8 0 -11 7 -8 20 6 22 19 27 25 9 2 -6 14 -8 32 -3 l29 7 -27 24
c-32 27 -49 29 -71 7 -13 -14 -39 -20 -102 -23 -7 -1 -13 -8 -13 -17 0 -14 8
-16 50 -12 45 5 48 3 40 -13 -7 -12 -6 -19 2 -21 8 -3 5 -18 -10 -52 -23 -47
-27 -51 -72 -61 -14 -2 -38 -8 -54 -11 -22 -5 -32 -2 -43 12 -10 14 -16 16
-21 7 -5 -8 -13 -9 -22 -3 -12 7 -12 10 3 16 14 5 17 13 12 35 -5 22 -2 31 10
35 30 12 -16 31 -61 26 -42 -4 -62 -23 -68 -67 -2 -11 -5 -20 -7 -19 -2 0 -27
6 -56 13 -29 7 -58 11 -65 8 -7 -2 -21 2 -30 10 -14 12 -23 13 -49 4 -17 -6
-35 -9 -39 -6 -4 2 -13 32 -20 66 -16 72 -14 74 71 83 50 6 59 10 59 26 0 12
-7 20 -17 20 -13 0 -14 3 -6 8 9 6 8 12 -7 25 -19 16 -20 15 -28 -16 -7 -28
-15 -34 -65 -50 l-57 -18 0 -78 c0 -73 1 -78 25 -89 14 -7 28 -19 31 -27 9
-22 24 -18 24 5 0 15 7 20 25 20 14 0 25 -2 25 -4 0 -2 2 -11 6 -19 4 -10 -6
-16 -35 -21 -31 -5 -39 -10 -34 -21 4 -12 9 -13 19 -4 21 18 59 7 62 -18 3
-17 10 -23 28 -23 19 0 24 4 20 18 -2 9 -8 32 -11 50 -8 38 -5 38 73 5 27 -11
32 -17 21 -24 -10 -6 -7 -9 12 -9 14 0 48 -7 75 -16 38 -12 112 -17 322 -21
l272 -5 0 25 c0 14 5 38 10 52 l10 27 118 -2 c64 -1 158 3 207 9 50 6 92 11
94 11 2 0 -2 6 -8 14 -8 9 -8 28 -1 66 13 67 13 73 -2 68 -8 -3 -13 -27 -15
-63 -1 -31 -4 -60 -7 -62 -3 -3 -36 -1 -73 4 -48 7 -62 12 -48 17 57 20 70 32
73 64 2 18 6 32 10 32 4 0 5 32 4 70 -3 49 1 76 10 87 11 14 14 8 23 -47 l10
-64 35 0 35 -1 -4 -99 c-2 -55 -10 -114 -17 -132 -26 -62 -24 -64 81 -64 57 0
95 -4 95 -10 0 -7 -838 -10 -2495 -10 l-2495 0 0 1095 0 1095 845 0 845 0 0
-355z m3120 -1315 c0 -5 -7 -10 -15 -10 -8 0 -15 5 -15 10 0 6 7 10 15 10 8 0
15 -4 15 -10z m0 -110 c0 -22 -4 -40 -10 -40 -5 0 -10 18 -10 40 0 22 5 40 10
40 6 0 10 -18 10 -40z m25 0 c0 -22 -3 -40 -7 -40 -5 0 -8 18 -8 40 0 22 3 40
8 40 4 0 7 -18 7 -40z m-435 -89 c0 -5 -12 -16 -26 -26 -20 -13 -29 -14 -38
-5 -8 8 -6 15 8 26 22 16 56 19 56 5z m220 -53 c-1 -34 -18 -41 -101 -42 -80
-1 -109 6 -109 25 0 5 28 9 63 9 34 0 69 5 77 10 22 14 70 12 70 -2z m-10
-112 c0 -2 -7 -6 -15 -10 -8 -3 -15 -1 -15 4 0 6 7 10 15 10 8 0 15 -2 15 -4z
m-820 -56 c0 -13 -11 -13 -30 0 -12 8 -11 10 8 10 12 0 22 -4 22 -10z"/>
<path d="M1700 2905 l0 -205 855 0 855 0 0 205 0 205 -855 0 -855 0 0 -205z
m1700 0 l0 -195 -845 0 -845 0 0 195 0 195 845 0 845 0 0 -195z"/>
<path d="M2730 3026 c0 -7 -9 -16 -21 -19 -30 -8 -23 -61 9 -65 20 -3 22 0 22
47 0 28 -2 51 -5 51 -3 0 -5 -6 -5 -14z m0 -51 c0 -16 -6 -25 -15 -25 -9 0
-15 9 -15 25 0 16 6 25 15 25 9 0 15 -9 15 -25z"/>
<path d="M2180 2984 c0 -44 1 -45 28 -42 35 4 39 41 5 46 -13 2 -23 10 -23 17
0 7 10 16 23 18 19 4 18 4 -5 6 -27 1 -28 -1 -28 -45z m50 -19 c0 -8 -9 -15
-20 -15 -11 0 -20 7 -20 15 0 8 9 15 20 15 11 0 20 -7 20 -15z"/>
<path d="M2263 2975 c0 -22 2 -30 4 -17 2 12 2 30 0 40 -3 9 -5 -1 -4 -23z"/>
<path d="M2299 2994 c-16 -19 -1 -48 27 -51 13 -2 11 1 -6 9 l-25 12 28 4 c15
2 27 7 27 11 0 5 -11 6 -25 3 -31 -6 -33 6 -2 18 15 6 17 9 6 9 -9 1 -22 -6
-30 -15z"/>
<path d="M2372 2973 c1 -37 1 -37 5 -5 3 18 10 32 18 32 8 0 16 -14 18 -32 l5
-33 -2 35 c-1 28 -5 36 -23 38 -21 3 -23 -1 -21 -35z"/>
<path d="M2481 2994 c0 -11 3 -14 6 -6 3 7 2 16 -1 19 -3 4 -6 -2 -5 -13z"/>
<path d="M2514 2996 c-11 -28 1 -51 26 -53 22 -1 22 -1 3 4 -13 2 -23 8 -23
13 0 5 10 11 23 13 l22 4 -22 2 c-13 0 -23 6 -23 12 0 6 9 9 20 6 11 -3 18 -1
14 4 -8 14 -34 11 -40 -5z"/>
<path d="M2581 2970 l1 -35 7 30 c4 20 12 30 24 29 9 -1 17 2 17 7 0 5 -11 8
-25 7 -22 -2 -25 -7 -24 -38z"/>
<path d="M2663 2975 c0 -22 2 -30 4 -17 2 12 2 30 0 40 -3 9 -5 -1 -4 -23z"/>
<path d="M2771 2992 c-7 -14 -7 -24 3 -37 19 -27 48 -12 44 22 -4 33 -32 42
-47 15z m39 -17 c0 -15 -6 -25 -14 -25 -16 0 -25 19 -18 38 8 22 32 13 32 -13z"/>
<path d="M2903 3004 c23 -7 22 -20 -4 -27 -27 -7 -20 -31 10 -35 20 -3 22 0
19 30 -2 24 -8 33 -23 35 -16 1 -16 1 -2 -3z m17 -44 c0 -5 -7 -10 -15 -10 -8
0 -15 5 -15 10 0 6 7 10 15 10 8 0 15 -4 15 -10z"/>
<path d="M2451 2975 c0 -5 3 -16 8 -23 7 -11 9 -10 14 3 4 9 3 14 -2 10 -5 -3
-12 1 -14 7 -3 7 -6 9 -6 3z"/>
<path d="M3010 2875 c0 -8 -9 -15 -19 -15 -22 0 -35 -28 -25 -54 3 -9 17 -16
30 -16 22 0 24 4 24 50 0 28 -2 50 -5 50 -3 0 -5 -7 -5 -15z m0 -44 c0 -11 -5
-23 -11 -27 -15 -9 -33 12 -26 30 9 23 37 20 37 -3z"/>
<path d="M2052 2839 c2 -24 8 -44 16 -45 7 -1 8 0 2 3 -12 6 -13 50 -1 55 5 2
2 9 -6 16 -12 12 -14 8 -11 -29z"/>
<path d="M2610 2864 c0 -8 5 -12 10 -9 6 4 8 11 5 16 -9 14 -15 11 -15 -7z"/>
<path d="M2668 2873 c-2 -5 -1 -26 3 -48 l6 -40 2 48 c1 44 -3 57 -11 40z"/>
<path d="M2445 2860 c-8 -13 9 -20 24 -11 10 6 9 10 -3 14 -8 3 -18 2 -21 -3z"/>
<path d="M1871 2823 c2 -35 2 -35 6 -8 3 16 10 33 16 37 8 5 6 8 -5 8 -14 0
-18 -8 -17 -37z"/>
<path d="M1926 2851 c-4 -5 3 -7 14 -4 23 6 26 13 6 13 -8 0 -17 -4 -20 -9z"/>
<path d="M1994 2848 c-4 -6 0 -16 9 -23 22 -16 21 -22 0 -29 -14 -4 -14 -4 2
-3 24 3 34 37 11 37 -22 0 -20 17 2 23 15 4 15 5 0 6 -9 0 -20 -4 -24 -11z"/>
<path d="M2123 2854 c23 -7 22 -20 -3 -27 -30 -8 -25 -37 6 -37 23 0 25 3 22
32 -2 24 -8 33 -23 35 -16 1 -16 1 -2 -3z m17 -44 c0 -5 -7 -10 -15 -10 -8 0
-15 5 -15 10 0 6 7 10 15 10 8 0 15 -4 15 -10z"/>
<path d="M2173 2828 c1 -26 7 -34 25 -36 12 -2 22 1 22 6 0 6 -9 8 -19 5 -16
-4 -21 2 -25 26 l-6 31 3 -32z"/>
<path d="M2252 2823 c1 -37 1 -37 5 -6 3 19 11 34 21 36 12 3 10 5 -5 6 -20 1
-23 -3 -21 -36z"/>
<path d="M2313 2853 c9 -2 17 -7 17 -10 0 -3 -8 -12 -17 -19 -16 -12 -16 -12
5 -7 13 3 22 13 22 24 0 13 -7 19 -22 18 -17 -1 -19 -2 -5 -6z"/>
<path d="M2373 2825 c0 -22 2 -30 4 -17 2 12 2 30 0 40 -3 9 -5 -1 -4 -23z"/>
<path d="M2397 2852 c6 -4 13 -21 16 -37 4 -27 4 -27 6 8 1 29 -3 37 -16 37
-12 0 -14 -3 -6 -8z"/>
<path d="M2494 2846 c-11 -28 1 -51 26 -53 22 -1 22 -1 3 4 -13 2 -23 9 -23
14 0 5 10 9 23 10 21 1 21 1 -3 8 -17 5 -21 9 -12 15 6 4 17 4 24 0 7 -4 8 -3
4 4 -10 17 -36 15 -42 -2z"/>
<path d="M2716 2851 c-4 -5 3 -7 14 -4 23 6 26 13 6 13 -8 0 -17 -4 -20 -9z"/>
<path d="M2781 2823 c2 -35 2 -35 6 -8 3 16 10 33 16 37 8 5 6 8 -5 8 -14 0
-18 -8 -17 -37z"/>
<path d="M2834 2846 c-9 -23 0 -51 16 -52 9 0 10 1 3 3 -20 7 -16 51 5 56 16
4 16 5 -1 6 -10 0 -20 -5 -23 -13z"/>
<path d="M2894 2846 c-11 -28 1 -51 26 -53 22 -1 22 -1 3 4 -13 2 -23 9 -23
14 0 5 10 9 23 10 21 1 21 1 -3 8 -17 5 -21 9 -12 15 6 4 17 4 24 0 7 -4 8 -3
4 4 -10 17 -36 15 -42 -2z"/>
<path d="M3040 2856 c0 -2 9 -6 20 -9 11 -3 20 -1 20 4 0 5 -9 9 -20 9 -11 0
-20 -2 -20 -4z"/>
<path d="M3113 2825 c0 -22 2 -30 4 -17 2 12 2 30 0 40 -3 9 -5 -1 -4 -23z"/>
<path d="M3163 2825 c0 -22 2 -30 4 -17 2 12 2 30 0 40 -3 9 -5 -1 -4 -23z"/>
<path d="M3202 2848 c-16 -16 -15 -33 3 -48 12 -10 18 -10 30 0 20 16 19 46
-1 54 -20 8 -18 8 -32 -6z m35 -14 c8 -21 -13 -42 -28 -27 -13 13 -5 43 11 43
6 0 13 -7 17 -16z"/>
<path d="M2637 2833 c3 -7 6 -13 8 -13 2 0 5 6 8 13 3 8 -1 14 -8 14 -7 0 -11
-6 -8 -14z"/>
<path d="M1940 2830 l-25 -8 28 -1 c15 -1 27 4 27 9 0 6 -1 10 -2 9 -2 -1 -14
-5 -28 -9z"/>
<path d="M2725 2830 l-30 -8 33 -1 c17 0 32 4 32 9 0 6 -1 9 -2 9 -2 -1 -16
-5 -33 -9z"/>
<path d="M3047 2823 c-14 -13 -6 -33 12 -33 19 0 35 23 24 34 -8 8 -28 8 -36
-1z m28 -13 c-3 -5 -10 -10 -16 -10 -5 0 -9 5 -9 10 0 6 7 10 16 10 8 0 12 -4
9 -10z"/>
<path d="M1928 2798 c5 -5 16 -8 23 -6 8 3 3 7 -10 11 -17 4 -21 3 -13 -5z"/>
<path d="M2315 2800 c-19 -8 -19 -9 3 -9 12 -1 22 4 22 9 0 6 -1 10 -2 9 -2 0
-12 -4 -23 -9z"/>
<path d="M2450 2800 c0 -6 7 -10 15 -10 8 0 15 2 15 4 0 2 -7 6 -15 10 -8 3
-15 1 -15 -4z"/>
<path d="M2718 2798 c6 -6 18 -8 28 -6 14 3 12 5 -9 10 -19 3 -25 2 -19 -4z"/>
<path d="M840 2406 c0 -7 -9 -16 -21 -19 -30 -8 -23 -61 9 -65 20 -3 22 0 22
47 0 28 -2 51 -5 51 -3 0 -5 -6 -5 -14z m0 -51 c0 -16 -6 -25 -15 -25 -9 0
-15 9 -15 25 0 16 6 25 15 25 9 0 15 -9 15 -25z"/>
<path d="M1410 2405 c0 -8 -6 -15 -14 -15 -8 0 -17 -4 -20 -9 -4 -5 3 -7 14
-4 16 4 20 0 20 -22 0 -22 -4 -26 -20 -22 -11 3 -18 1 -14 -4 3 -5 14 -9 25
-9 16 0 19 7 19 50 0 28 -2 50 -5 50 -3 0 -5 -7 -5 -15z"/>
<path d="M175 2365 c0 -25 5 -45 10 -45 6 0 10 20 10 45 0 25 -4 45 -10 45 -5
0 -10 -20 -10 -45z"/>
<path d="M740 2400 c0 -5 5 -10 10 -10 6 0 10 5 10 10 0 6 -4 10 -10 10 -5 0
-10 -4 -10 -10z"/>
<path d="M1198 2397 c-7 -21 6 -70 20 -73 7 -1 8 0 2 3 -12 6 -13 50 -1 55 5
2 3 8 -4 15 -10 9 -14 9 -17 0z"/>
<path d="M223 2355 c0 -22 2 -30 4 -17 2 12 2 30 0 40 -3 9 -5 -1 -4 -23z"/>
<path d="M247 2382 c6 -4 13 -21 16 -37 4 -27 4 -27 6 8 1 29 -3 37 -16 37
-12 0 -14 -3 -6 -8z"/>
<path d="M300 2375 c-18 -22 -3 -57 23 -53 31 4 39 68 9 68 -11 0 -25 -7 -32
-15z m40 -14 c0 -11 -5 -23 -11 -27 -15 -9 -33 12 -26 30 9 23 37 20 37 -3z"/>
<path d="M373 2355 c0 -22 2 -30 4 -17 2 12 2 30 0 40 -3 9 -5 -1 -4 -23z"/>
<path d="M424 2376 c-11 -28 0 -51 26 -53 l25 -3 -25 12 -25 11 23 5 c15 2 22
9 20 20 -4 22 -36 28 -44 8z m36 -6 c0 -5 -7 -10 -16 -10 -8 0 -12 5 -9 10 3
6 10 10 16 10 5 0 9 -4 9 -10z"/>
<path d="M495 2380 c-9 -14 1 -27 25 -33 11 -3 18 -1 14 4 -3 5 -12 9 -20 9
-20 0 -18 18 4 23 15 4 15 5 0 6 -9 0 -20 -3 -23 -9z"/>
<path d="M573 2384 c23 -7 22 -20 -4 -27 -27 -7 -20 -31 10 -35 20 -3 22 0 19
30 -2 24 -8 33 -23 35 -16 1 -16 1 -2 -3z m17 -44 c0 -5 -7 -10 -16 -10 -8 0
-12 5 -9 10 3 6 10 10 16 10 5 0 9 -4 9 -10z"/>
<path d="M632 2353 c1 -37 1 -37 5 -6 3 19 11 34 21 36 12 3 10 5 -5 6 -20 1
-23 -3 -21 -36z"/>
<path d="M882 2353 c1 -37 1 -37 5 -5 3 18 10 32 18 32 8 0 16 -14 18 -32 l5
-33 -2 35 c-1 28 -5 36 -23 38 -21 3 -23 -1 -21 -35z"/>
<path d="M947 2383 c6 -4 13 -22 16 -38 4 -27 5 -27 3 4 0 21 -7 36 -16 38
-10 3 -11 2 -3 -4z"/>
<path d="M993 2355 c0 -22 2 -30 4 -17 2 12 2 30 0 40 -3 9 -5 -1 -4 -23z"/>
<path d="M1032 2353 c1 -37 1 -37 5 -5 3 18 10 32 18 32 8 0 16 -14 18 -32 l5
-33 -2 35 c-1 28 -5 36 -23 38 -21 3 -23 -1 -21 -35z"/>
<path d="M1103 2355 c0 -22 2 -30 4 -17 2 12 2 30 0 40 -3 9 -5 -1 -4 -23z"/>
<path d="M1135 2380 c-8 -14 3 -30 21 -30 17 0 19 -17 2 -23 -9 -2 -8 -4 1 -3
23 2 25 27 2 33 -28 7 -27 20 2 26 22 4 22 4 0 6 -12 0 -25 -3 -28 -9z"/>
<path d="M1250 2380 c0 -5 7 -7 15 -4 8 4 15 8 15 10 0 2 -7 4 -15 4 -8 0 -15
-4 -15 -10z"/>
<path d="M1313 2384 c23 -7 22 -20 -4 -27 -27 -7 -20 -31 10 -35 20 -3 22 0
19 30 -2 24 -8 33 -23 35 -16 1 -16 1 -2 -3z m17 -44 c0 -5 -7 -10 -15 -10 -8
0 -15 5 -15 10 0 6 7 10 15 10 8 0 15 -4 15 -10z"/>
<path d="M1447 2383 c-4 -3 -7 -17 -7 -30 0 -26 26 -41 42 -25 8 8 5 9 -11 5
-18 -4 -21 -1 -21 22 0 22 4 26 20 22 11 -3 18 -1 14 4 -6 11 -28 12 -37 2z"/>
<path d="M1520 2380 c0 -5 7 -7 15 -4 8 4 15 8 15 10 0 2 -7 4 -15 4 -8 0 -15
-4 -15 -10z"/>
<path d="M722 2350 c-10 -28 -10 -29 9 -17 15 9 23 9 38 0 19 -12 19 -11 9 17
-5 17 -12 30 -15 30 -3 0 -3 -7 1 -15 4 -10 -1 -15 -14 -15 -13 0 -18 5 -14
15 4 8 4 15 1 15 -3 0 -10 -13 -15 -30z"/>
<path d="M1515 2350 c-3 -5 -1 -10 4 -10 6 0 11 5 11 10 0 6 -2 10 -4 10 -3 0
-8 -4 -11 -10z"/>
<path d="M1240 2329 c0 -5 5 -7 10 -4 6 3 10 8 10 11 0 2 -4 4 -10 4 -5 0 -10
-5 -10 -11z"/>
<path d="M498 2323 c6 -2 18 -2 25 0 6 3 1 5 -13 5 -14 0 -19 -2 -12 -5z"/>
<path d="M308 2303 c7 -3 16 -2 19 1 4 3 -2 6 -13 5 -11 0 -14 -3 -6 -6z"/>
<path d="M4443 2370 c0 -30 2 -43 4 -27 2 15 2 39 0 55 -2 15 -4 2 -4 -28z"/>
<path d="M4592 2403 c-4 -10 -5 -34 -1 -53 l6 -35 2 33 c0 18 6 32 14 32 8 0
7 4 -3 10 -13 9 -13 11 0 20 9 6 11 10 3 10 -7 0 -16 -8 -21 -17z"/>
<path d="M3805 2365 c0 -25 5 -45 10 -45 7 0 9 15 7 36 -3 24 0 39 9 45 11 7
9 9 -6 9 -17 0 -20 -7 -20 -45z"/>
<path d="M4373 2403 c-7 -2 -13 -9 -13 -15 0 -7 4 -7 13 0 6 5 21 12 32 15
l20 5 -20 0 c-11 0 -26 -2 -32 -5z"/>
<path d="M3857 2376 c-4 -9 -2 -18 4 -21 5 -4 8 -1 7 6 -2 7 5 14 14 17 12 2
18 -5 21 -30 l5 -33 -2 35 c-1 28 -6 36 -22 38 -12 2 -24 -4 -27 -12z"/>
<path d="M3937 2383 c-16 -16 -6 -55 15 -61 21 -5 21 -6 2 -14 -18 -8 -18 -8
1 -5 16 2 21 11 23 45 3 36 0 42 -16 42 -10 0 -22 -3 -25 -7z m33 -28 c0 -16
-6 -25 -15 -25 -9 0 -15 9 -15 25 0 16 6 25 15 25 9 0 15 -9 15 -25z"/>
<path d="M4005 2381 c-9 -16 9 -20 23 -5 10 12 10 14 -2 14 -8 0 -17 -4 -21
-9z"/>
<path d="M4061 2368 c-10 -26 3 -48 28 -47 10 0 7 4 -9 12 l-25 11 28 4 c15 2
27 7 27 12 0 4 -9 6 -20 3 -11 -3 -20 -1 -20 5 0 6 8 13 18 15 16 4 16 5 -1 6
-10 0 -21 -9 -26 -21z"/>
<path d="M4134 2378 c-4 -6 0 -16 9 -23 22 -16 21 -22 0 -29 -14 -4 -14 -4 2
-3 24 3 34 37 11 37 -22 0 -20 17 2 23 15 4 15 5 0 6 -9 0 -20 -4 -24 -11z"/>
<path d="M4213 2384 c23 -7 22 -20 -4 -27 -27 -7 -20 -31 10 -35 20 -3 22 0
19 30 -2 24 -8 33 -23 35 -16 1 -16 1 -2 -3z m17 -44 c0 -5 -7 -10 -15 -10 -8
0 -15 5 -15 10 0 6 7 10 15 10 8 0 15 -4 15 -10z"/>
<path d="M4261 2350 c1 -27 3 -29 6 -10 2 14 11 30 20 37 13 10 13 12 -6 10
-17 -1 -21 -7 -20 -37z"/>
<path d="M4467 2383 c6 -4 13 -22 16 -38 4 -27 5 -27 3 4 0 21 -7 36 -16 38
-10 3 -11 2 -3 -4z"/>
<path d="M4523 2378 c-18 -24 -3 -58 25 -57 12 0 9 4 -8 12 l-25 11 28 4 c20
2 27 8 25 20 -4 21 -32 27 -45 10z m37 -8 c0 -5 -9 -10 -21 -10 -11 0 -17 5
-14 10 3 6 13 10 21 10 8 0 14 -4 14 -10z"/>
<path d="M4357 2352 c5 -21 47 -41 60 -28 4 3 -3 6 -14 6 -11 0 -28 10 -36 23
l-16 22 6 -23z"/>
<path d="M2393 2135 c-10 -43 -9 -45 11 -45 45 0 76 48 50 75 -29 29 -50 18
-61 -30z"/>
<path d="M1700 1240 l0 -150 -567 0 -568 0 0 -130 c0 -150 -4 -157 -69 -134
-46 17 -52 24 -67 82 -18 66 -40 69 -52 6 -4 -23 -1 -37 12 -51 28 -29 54 -83
41 -83 -6 0 -2 -13 10 -30 19 -27 27 -30 75 -30 44 0 56 -4 65 -20 6 -11 19
-20 30 -20 16 0 18 5 13 37 -5 27 -3 34 6 29 7 -5 10 -14 7 -22 -3 -8 -1 -14
4 -14 10 0 14 14 11 37 -1 6 4 15 10 19 8 4 9 3 5 -4 -4 -7 -1 -12 8 -12 8 0
17 4 20 9 3 4 24 -9 46 -29 34 -31 53 -40 106 -50 83 -14 174 -48 181 -67 3
-8 -1 -20 -8 -27 -16 -15 -88 -41 -139 -51 -19 -4 -40 -11 -45 -15 -6 -5 -32
-14 -58 -21 -43 -10 -49 -10 -62 7 -12 17 -17 17 -36 6 -15 -10 -24 -11 -32
-3 -6 6 -7 11 -2 11 5 0 0 6 -11 14 -11 8 -71 24 -133 36 -62 12 -140 29 -173
40 l-59 18 34 -33 c18 -18 34 -40 34 -48 0 -9 -3 -14 -7 -12 -4 2 -6 -16 -5
-40 2 -45 2 -45 -32 -45 -20 0 -32 4 -28 10 3 5 2 10 -3 10 -5 0 -13 21 -17
47 -4 27 -12 54 -17 61 -6 7 -8 31 -5 55 4 30 0 63 -14 108 -12 35 -21 76 -21
92 1 15 -4 27 -9 27 -6 0 -3 7 5 16 20 19 21 45 2 38 -14 -6 -26 53 -26 132 0
42 -1 44 -30 44 l-30 0 0 -535 0 -535 352 0 c194 0 407 3 474 7 119 6 121 6
131 32 10 24 11 25 12 4 1 -19 6 -22 38 -21 21 1 32 3 25 6 -21 7 -14 21 30
62 23 22 42 40 42 40 1 0 3 -26 4 -57 2 -31 6 -61 8 -65 7 -11 358 -10 370 1
13 12 84 21 84 10 0 -5 7 -9 15 -9 13 0 15 65 15 525 l0 525 855 0 855 0 0
155 0 155 -855 0 -855 0 0 -150z m1700 -5 l0 -145 -845 0 -845 0 0 145 0 145
845 0 845 0 0 -145z m-2690 -259 c17 -32 7 -56 -24 -56 -32 0 -51 32 -36 60
15 27 44 25 60 -4z m371 -4 c4 -56 -3 -62 -93 -67 l-76 -5 -7 31 c-9 41 3 51
45 39 25 -7 36 -7 41 3 4 6 26 13 48 14 33 2 41 -1 42 -15z m165 1 c37 -14 -2
-33 -68 -33 -39 0 -53 12 -44 37 5 12 15 14 52 8 26 -3 53 -9 60 -12z m169 -3
c0 -8 -8 -16 -17 -18 -13 -2 -18 3 -18 18 0 15 5 20 18 18 9 -2 17 -10 17 -18z
m-575 -28 c0 -4 -6 -14 -12 -20 -10 -10 -10 -15 2 -22 12 -8 12 -12 0 -36
l-15 -26 -12 28 c-14 32 -16 67 -6 77 9 10 43 9 43 -1z m118 -77 c13 -13 -17
-25 -46 -19 -48 10 -44 38 4 31 20 -3 39 -9 42 -12z m472 -195 c0 -5 -4 -10
-10 -10 -5 0 -10 5 -10 10 0 6 5 10 10 10 6 0 10 -4 10 -10z m-127 -82 c-2 -5
0 -15 6 -22 8 -10 7 -16 -3 -26 -31 -25 -40 6 -20 70 4 12 6 12 14 0 5 -8 6
-18 3 -22z m84 -110 c-3 -8 -6 -5 -6 6 -1 11 2 17 5 13 3 -3 4 -12 1 -19z
m-287 -29 c0 -5 -4 -9 -10 -9 -5 0 -10 7 -10 16 0 8 5 12 10 9 6 -3 10 -10 10
-16z m-40 -4 c0 -3 -9 -14 -19 -24 -14 -14 -22 -16 -30 -8 -8 8 -11 8 -11 -1
0 -7 6 -15 14 -18 8 -3 17 -13 20 -21 6 -14 4 -14 -11 -2 -10 8 -23 20 -29 28
-9 11 -15 9 -36 -12 -18 -18 -32 -24 -48 -20 -15 4 -21 2 -17 -4 4 -7 46 -10
104 -9 69 1 98 -2 98 -11 0 -23 15 -25 74 -12 38 8 56 16 48 21 -7 5 17 8 53
7 36 0 79 0 95 0 l30 1 -34 15 c-18 8 -40 15 -47 15 -8 0 -23 5 -34 12 -16 10
-22 9 -38 -10 -26 -30 -42 -28 -85 13 l-37 35 32 0 c18 0 73 -7 122 -15 83
-14 90 -13 102 3 12 16 13 15 23 -8 6 -16 10 -19 10 -8 1 20 17 32 31 23 7 -4
7 -12 0 -25 -8 -16 -5 -20 28 -30 53 -17 119 -57 126 -76 11 -28 -20 -61 -76
-81 -76 -26 -434 -26 -558 0 -161 34 -293 90 -303 127 -9 35 28 55 106 57 40
1 83 5 97 8 14 4 52 8 85 10 32 1 61 8 63 14 4 11 52 16 52 6z m100 -91 c0
-12 -4 -12 -20 -4 -11 6 -18 15 -15 20 8 13 35 0 35 -16z m-575 -44 c-3 -5
-13 -10 -21 -10 -8 0 -12 5 -9 10 3 6 13 10 21 10 8 0 12 -4 9 -10z m-194
-117 c-9 -15 -10 -13 -11 13 0 17 3 34 8 38 11 12 14 -32 3 -51z m1214 -53 c3
-5 1 -10 -4 -10 -6 0 -11 5 -11 10 0 6 2 10 4 10 3 0 8 -4 11 -10z"/>
<path d="M2192 1278 c-28 -28 -7 -79 33 -77 17 1 16 2 -5 8 -19 5 -25 13 -25
36 0 23 6 31 25 36 21 6 22 7 5 8 -12 1 -26 -4 -33 -11z"/>
<path d="M2838 1279 c-2 -6 -2 -26 0 -45 3 -24 9 -34 21 -33 10 0 11 2 4 6
-15 5 -18 50 -4 55 5 2 3 8 -4 15 -9 9 -15 9 -17 2z"/>
<path d="M2261 1230 c1 -27 3 -29 6 -10 2 14 11 30 20 37 13 10 13 12 -6 10
-17 -1 -21 -7 -20 -37z"/>
<path d="M2319 1254 c-16 -19 -1 -48 27 -51 13 -2 11 1 -6 9 l-25 12 28 4 c21
2 27 8 23 19 -3 8 -6 17 -6 19 0 11 -29 2 -41 -12z m36 -4 c3 -5 -3 -10 -15
-10 -12 0 -18 5 -15 10 3 6 10 10 15 10 5 0 12 -4 15 -10z"/>
<path d="M2403 1264 c23 -7 22 -20 -4 -27 -27 -7 -20 -31 10 -35 20 -3 22 0
19 30 -2 24 -8 33 -23 35 -16 1 -16 1 -2 -3z m17 -44 c0 -5 -7 -10 -15 -10 -8
0 -15 5 -15 10 0 6 7 10 15 10 8 0 15 -4 15 -10z"/>
<path d="M2462 1233 c1 -37 1 -37 5 -6 3 19 11 34 21 36 12 3 10 5 -5 6 -20 1
-23 -3 -21 -36z"/>
<path d="M2554 1256 c-9 -23 0 -51 16 -52 9 0 10 1 3 3 -20 7 -16 51 5 56 16
4 16 5 -1 6 -10 0 -20 -5 -23 -13z"/>
<path d="M2613 1238 c1 -26 7 -34 25 -36 12 -2 22 1 22 6 0 6 -9 8 -19 5 -16
-4 -21 2 -25 26 l-6 31 3 -32z"/>
<path d="M2694 1256 c-11 -28 0 -51 26 -53 22 -1 22 -1 3 4 -29 6 -30 23 -2
23 14 0 19 5 17 17 -4 23 -36 29 -44 9z m36 -6 c0 -5 -7 -10 -15 -10 -8 0 -15
5 -15 10 0 6 7 10 15 10 8 0 15 -4 15 -10z"/>
<path d="M2763 1235 c0 -22 2 -30 4 -17 2 12 2 30 0 40 -3 9 -5 -1 -4 -23z"/>
<path d="M2787 1263 c6 -4 13 -22 16 -38 4 -27 5 -27 3 4 0 21 -7 36 -16 38
-10 3 -11 2 -3 -4z"/>
<path d="M2903 1264 c23 -7 22 -20 -4 -27 -27 -7 -20 -31 10 -35 20 -3 22 0
19 30 -2 24 -8 33 -23 35 -16 1 -16 1 -2 -3z m17 -44 c0 -5 -7 -10 -15 -10 -8
0 -15 5 -15 10 0 6 7 10 15 10 8 0 15 -4 15 -10z"/>
<path d="M870 401 c0 -6 5 -13 10 -16 6 -3 10 1 10 9 0 9 -4 16 -10 16 -5 0
-10 -4 -10 -9z"/>
<path d="M3564 1046 c-3 -13 -3 -91 0 -172 3 -82 5 -171 6 -197 l0 -48 30 23
c17 12 30 31 30 43 0 24 34 59 67 69 37 12 46 -2 23 -35 -13 -17 -17 -29 -9
-29 7 0 9 -10 6 -30 -4 -16 -2 -30 3 -30 5 0 13 19 17 42 7 33 14 43 33 48 23
6 24 7 6 17 -16 9 -19 26 -23 134 -6 177 -8 189 -40 189 -25 0 -25 -1 -9 -13
26 -19 38 -237 14 -237 -9 0 -18 9 -21 21 -3 12 -10 18 -16 15 -15 -10 -23 51
-17 137 l5 77 -49 0 c-44 0 -50 -3 -56 -24z"/>
<path d="M4030 1050 c0 -12 5 -17 14 -14 11 4 15 -8 18 -51 1 -31 0 -59 -4
-62 -5 -2 -8 -13 -8 -23 0 -13 8 -20 28 -22 21 -2 28 -9 30 -32 3 -23 0 -28
-12 -23 -9 4 -16 1 -16 -4 0 -7 11 -9 25 -7 19 4 25 1 25 -13 0 -13 -7 -19
-22 -19 -18 0 -20 -2 -8 -9 8 -6 18 -7 22 -5 4 3 8 -1 8 -9 0 -17 42 -47 64
-47 34 0 31 134 -4 205 -20 40 -31 51 -52 53 -26 3 -28 6 -28 53 l0 49 -40 0
c-33 0 -40 -3 -40 -20z"/>
<path d="M3801 1007 c1 -23 3 -33 6 -22 3 11 9 24 14 29 13 14 11 23 -6 30
-12 4 -15 -3 -14 -37z"/>
<path d="M3973 995 c-17 -19 -16 -25 2 -25 8 0 15 9 15 20 0 23 -1 24 -17 5z"/>
<path d="M463 951 c-13 -11 -23 -26 -23 -35 0 -27 15 -18 33 19 9 19 16 35 14
35 -1 -1 -12 -9 -24 -19z"/>
<path d="M4614 895 c3 -22 6 -78 6 -124 0 -46 3 -81 7 -77 11 11 3 208 -9 226
-6 10 -8 3 -4 -25z"/>
<path d="M4394 828 c-30 -20 -50 -42 -52 -55 -4 -27 8 -29 49 -8 32 17 49 13
49 -11 0 -8 4 -14 9 -14 27 0 15 -108 -15 -141 -14 -15 -12 -17 20 -21 38 -4
39 -3 70 92 3 12 5 11 5 -2 1 -21 17 -24 23 -5 3 6 2 43 -2 81 -4 52 -10 71
-25 82 -11 7 -25 18 -32 24 -21 17 -49 11 -99 -22z m134 -110 c-5 -32 -28 -36
-26 -4 1 14 8 26 16 26 8 0 12 -9 10 -22z"/>
<path d="M3805 779 c2 -39 6 -74 9 -77 10 -9 7 -24 -3 -18 -5 3 -11 -1 -15 -9
-3 -8 0 -17 5 -21 6 -3 8 -16 5 -29 -4 -14 0 -27 9 -35 12 -10 14 2 9 94 -3
61 0 114 5 125 7 12 6 22 -1 29 -23 23 -27 11 -23 -59z"/>
<path d="M3983 843 c-18 -7 -16 -30 2 -37 11 -4 15 1 15 19 0 14 -1 25 -2 24
-2 0 -9 -3 -15 -6z"/>
<path d="M4050 820 c0 -5 5 -10 11 -10 5 0 7 5 4 10 -3 6 -8 10 -11 10 -2 0
-4 -4 -4 -10z"/>
<path d="M4255 725 c4 -22 8 -51 7 -65 -1 -20 1 -21 7 -7 4 10 10 18 14 18 25
-3 26 3 6 37 -35 58 -42 62 -34 17z"/>
<path d="M4081 734 c0 -11 3 -14 6 -6 3 7 2 16 -1 19 -3 4 -6 -2 -5 -13z"/>
<path d="M4758 697 c-3 -33 -2 -36 11 -23 11 12 12 21 4 38 -9 21 -10 20 -15
-15z"/>
<path d="M4403 713 c-18 -7 -16 -23 2 -23 8 0 15 4 15 9 0 5 8 12 18 14 14 4
14 5 -3 5 -11 0 -26 -2 -32 -5z"/>
<path d="M4120 695 c0 -31 23 -85 35 -85 21 0 18 16 -10 58 -14 20 -25 32 -25
27z"/>
<path d="M530 675 c9 -10 9 -15 1 -15 -6 0 -11 -4 -11 -10 0 -12 40 -13 59 -1
11 7 7 13 -17 25 -39 20 -48 20 -32 1z"/>
<path d="M631 677 c-9 -11 -8 -17 4 -27 12 -10 13 -16 3 -28 -10 -11 -6 -11
15 3 27 17 27 18 10 39 -10 11 -18 22 -19 24 -1 1 -6 -4 -13 -11z"/>
<path d="M3969 665 c-1 -5 -2 -28 -3 -50 -1 -44 10 -40 -106 -44 -37 -1 -42
-4 -27 -12 12 -7 49 -8 103 -4 l84 7 0 34 c0 31 -19 60 -21 32 0 -7 -7 1 -14
17 -8 17 -15 26 -16 20z"/>
<path d="M4394 649 c-7 -12 9 -16 36 -8 27 8 26 9 -8 13 -13 2 -25 -1 -28 -5z"/>
<path d="M565 610 c-19 -20 -24 -30 -14 -31 8 0 33 -3 57 -5 27 -3 42 -1 42 6
0 6 -8 10 -17 8 -10 -2 -18 2 -18 7 0 6 -5 18 -11 28 -9 16 -12 15 -39 -13z"/>
<path d="M3616 608 c2 -18 8 -34 12 -36 12 -4 2 -55 -12 -65 -6 -5 0 -5 14 -2
14 4 30 12 35 18 7 7 4 8 -7 4 -12 -4 -18 -1 -18 8 0 8 9 15 20 15 l21 0 -21
22 c-11 13 -23 33 -26 45 -9 35 -23 27 -18 -9z"/>
<path d="M3670 612 c0 -18 5 -32 10 -32 6 0 8 12 6 26 -7 39 -16 42 -16 6z"/>
<path d="M4415 610 c-3 -5 -1 -10 4 -10 6 0 11 5 11 10 0 6 -2 10 -4 10 -3 0
-8 -4 -11 -10z"/>
<path d="M741 601 c-12 -8 -12 -12 -2 -25 19 -22 34 -20 22 3 -6 10 -7 21 -4
25 9 9 0 7 -16 -3z"/>
<path d="M700 570 c0 -5 7 -10 16 -10 8 0 12 5 9 10 -3 6 -10 10 -16 10 -5 0
-9 -4 -9 -10z"/>
<path d="M3412 572 c-6 -2 -12 -12 -12 -23 0 -17 5 -19 38 -13 20 3 40 10 45
13 9 9 -53 29 -71 23z"/>
<path d="M4096 563 c-11 -11 -6 -23 9 -23 8 0 15 4 15 9 0 13 -16 22 -24 14z"/>
<path d="M3765 520 c-3 -5 -2 -16 2 -23 6 -9 13 -7 30 10 l22 23 -24 0 c-13 0
-27 -4 -30 -10z"/>
<path d="M3990 514 c0 -9 -7 -22 -17 -29 -14 -11 -13 -13 10 -17 23 -5 25 -2
24 28 -2 34 -17 49 -17 18z"/>
<path d="M4165 513 c3 -8 5 -17 5 -19 0 -6 36 -5 43 2 9 10 -16 31 -36 31 -11
0 -16 -6 -12 -14z"/>
<path d="M3891 440 c-1 -36 -6 -98 -10 -137 -4 -40 -4 -73 0 -73 10 0 21 47
25 110 2 30 6 68 9 85 4 23 3 25 -4 10 -7 -16 -10 -11 -13 25 -4 39 -5 37 -7
-20z"/>
<path d="M4215 470 l-20 -9 20 0 c11 0 27 4 35 9 13 9 13 10 0 9 -8 0 -24 -4
-35 -9z"/>
<path d="M3473 463 c-65 -3 -73 -6 -73 -23 0 -18 7 -20 53 -19 76 2 111 12
115 32 2 10 -2 16 -10 15 -7 -1 -46 -4 -85 -5z"/>
<path d="M3730 434 c0 -6 -12 -15 -27 -22 -26 -10 -26 -11 -3 -5 30 6 46 20
37 30 -4 3 -7 2 -7 -3z"/>
<path d="M3650 416 c0 -2 5 -17 11 -33 6 -15 12 -45 14 -65 3 -46 22 -66 55
-58 25 6 25 7 3 14 -15 5 -29 25 -42 62 -12 30 -21 59 -21 64 0 5 -4 12 -10
15 -5 3 -10 4 -10 1z"/>
<path d="M3835 410 c4 -6 11 -8 16 -5 14 9 11 15 -7 15 -8 0 -12 -5 -9 -10z"/>
<path d="M3930 396 c0 -8 5 -18 10 -21 6 -3 10 3 10 14 0 12 -4 21 -10 21 -5
0 -10 -6 -10 -14z"/>
<path d="M4150 383 c-14 -7 -19 -13 -11 -13 11 0 11 -4 -2 -18 -22 -24 -13
-32 35 -32 31 0 38 -3 38 -20 0 -11 5 -20 10 -20 6 0 10 -7 10 -15 0 -8 7 -15
15 -15 13 0 13 3 -1 26 -16 24 -16 25 4 31 12 3 22 9 22 14 0 5 9 9 19 9 11 0
23 5 26 10 4 7 -7 8 -34 4 -47 -8 -98 10 -103 35 -3 15 -6 15 -28 4z"/>
<path d="M4025 340 c-18 -20 -17 -20 8 -20 20 0 27 5 27 20 0 11 -4 20 -8 20
-5 0 -17 -9 -27 -20z"/>
<path d="M3946 144 c-8 -20 -3 -27 18 -22 12 2 13 6 2 21 -13 16 -14 16 -20 1z"/>
<path d="M3475 30 c4 -6 11 -8 16 -5 14 9 11 15 -7 15 -8 0 -12 -5 -9 -10z"/>
<path d="M3728 23 c7 -3 16 -2 19 1 4 3 -2 6 -13 5 -11 0 -14 -3 -6 -6z"/>
</g>
</svg>
